<?xml version="1.0" encoding="UTF-8"?>
<svg viewBox="0 0 659.84521 1124.22" xmlns="http://www.w3.org/2000/svg">
 <defs>
  <filter id="ag">
   <feGaussianBlur stdDeviation="24.27056"/>
  </filter>
  <filter id="a">
   <feGaussianBlur stdDeviation="3.62904"/>
  </filter>
  <filter id="ab" x="-.02291" y="-.80683" width="1.0458" height="2.6137">
   <feGaussianBlur stdDeviation="3.62904"/>
  </filter>
  <filter id="aa" x="-.02518" y="-.4338" width="1.0504" height="1.8676">
   <feGaussianBlur stdDeviation="3.62904"/>
  </filter>
  <filter id="z" x="-.02559" y="-.51318" width="1.0512" height="2.0264">
   <feGaussianBlur stdDeviation="3.62904"/>
  </filter>
  <filter id="y" x="-.02468" y="-.51281" width="1.0494" height="2.0256">
   <feGaussianBlur stdDeviation="3.62904"/>
  </filter>
  <filter id="x" x="-.02448" y="-.44505" width="1.049" height="1.8901">
   <feGaussianBlur stdDeviation="3.62904"/>
  </filter>
  <filter id="w" x="-.0234" y="-.4163" width="1.0468" height="1.8326">
   <feGaussianBlur stdDeviation="3.62904"/>
  </filter>
  <filter id="v" x="-.17646" y="-.81308" width="1.3529" height="2.6262">
   <feGaussianBlur stdDeviation="3.62904"/>
  </filter>
  <filter id="u" x="-.08011" y="-.68876" width="1.1602" height="2.3775">
   <feGaussianBlur stdDeviation="3.62904"/>
  </filter>
  <filter id="t" x="-.07973" y="-.81278" width="1.1594" height="2.6256">
   <feGaussianBlur stdDeviation="3.62904"/>
  </filter>
  <filter id="s" x="-.10275" y="-.50583" width="1.2055" height="2.0117">
   <feGaussianBlur stdDeviation="3.62904"/>
  </filter>
  <filter id="r" x="-.04892" y="-.34308" width="1.0978" height="1.6862">
   <feGaussianBlur stdDeviation="3.62904"/>
  </filter>
  <filter id="q" x="-.04908" y="-.29099" width="1.0982" height="1.582">
   <feGaussianBlur stdDeviation="3.62904"/>
  </filter>
  <filter id="p" x="-.044" y="-.28222" width="1.088" height="1.5644">
   <feGaussianBlur stdDeviation="3.62904"/>
  </filter>
  <filter id="o" x="-.05813" y="-.38902" width="1.1163" height="1.778">
   <feGaussianBlur stdDeviation="3.62904"/>
  </filter>
  <filter id="n" x="-.05795" y="-.37495" width="1.1159" height="1.7499">
   <feGaussianBlur stdDeviation="3.62904"/>
  </filter>
  <filter id="m" x="-.06518" y="-.38338" width="1.1304" height="1.7668">
   <feGaussianBlur stdDeviation="3.62904"/>
  </filter>
  <filter id="l" x="-.07139" y="-.11966" width="1.1428" height="1.2393">
   <feGaussianBlur stdDeviation="3.62904"/>
  </filter>
  <filter id="k" x="-.03873" y="-.27134" width="1.0775" height="1.5427">
   <feGaussianBlur stdDeviation="3.62904"/>
  </filter>
  <filter id="j" x="-.03672" y="-.27033" width="1.0734" height="1.5407">
   <feGaussianBlur stdDeviation="3.62904"/>
  </filter>
  <filter id="i" x="-.03511" y="-.6076" width="1.0702" height="2.2152">
   <feGaussianBlur stdDeviation="3.62904"/>
  </filter>
  <filter id="af" x="-.43208" y="-.31574" width="1.8642" height="1.6315">
   <feGaussianBlur stdDeviation="2.63161"/>
  </filter>
  <filter id="ae" x="-.33961" y="-.28963" width="1.6792" height="1.5793">
   <feGaussianBlur stdDeviation="2.63161"/>
  </filter>
  <filter id="ad" x="-.30402" y="-.29694" width="1.608" height="1.5939">
   <feGaussianBlur stdDeviation="2.63161"/>
  </filter>
  <filter id="ac" x="-.40466" y="-.2959" width="1.8093" height="1.5918">
   <feGaussianBlur stdDeviation="2.63161"/>
  </filter>
  <linearGradient id="h" x1="605.62" x2="605.62" y1="869.55" y2="1059.6" gradientUnits="userSpaceOnUse">
   <stop stop-color="#686562" offset="0"/>
   <stop stop-color="#53504d" offset=".18772"/>
   <stop stop-color="#8f8c88" offset=".30992"/>
   <stop stop-color="#bebcba" offset="1"/>
  </linearGradient>
  <linearGradient id="g" x1="580.54" x2="622.5" gradientUnits="userSpaceOnUse">
   <stop stop-color="#9c938b" offset="0"/>
   <stop stop-color="#9c938b" offset=".15044"/>
   <stop stop-color="#eceae9" offset=".2557"/>
   <stop stop-color="#eceae9" offset=".71677"/>
   <stop stop-color="#766c64" offset="1"/>
  </linearGradient>
  <linearGradient id="f" x2="0" y1="1065.8" y2="239.6" gradientUnits="userSpaceOnUse">
   <stop stop-color="#1a1a1a" offset="0"/>
   <stop stop-color="#1a1a1a" stop-opacity="0" offset=".0354"/>
   <stop stop-color="#1a1a1a" stop-opacity="0" offset="1"/>
  </linearGradient>
  <linearGradient id="e" x1="420.37" x2="792.66" gradientUnits="userSpaceOnUse">
   <stop stop-color="#f3f0ed" stop-opacity=".1195" offset="0"/>
   <stop stop-color="#f3f0ed" stop-opacity=".49804" offset=".5"/>
   <stop stop-color="#f3f0ed" stop-opacity="0" offset="1"/>
  </linearGradient>
  <linearGradient id="d" x1="457.78" x2="751.56" gradientUnits="userSpaceOnUse">
   <stop stop-color="#7e7d7e" offset="0"/>
   <stop stop-color="#7e7d7e" offset=".79646"/>
   <stop stop-color="#505050" offset="1"/>
  </linearGradient>
  <linearGradient id="c" x1="540.59" x2="669.03" gradientUnits="userSpaceOnUse">
   <stop stop-color="#f8f8f8" stop-opacity=".19497" offset="0"/>
   <stop stop-color="#f8f8f8" stop-opacity=".44654" offset=".69912"/>
   <stop stop-color="#f8f8f8" stop-opacity=".23899" offset="1"/>
  </linearGradient>
  <linearGradient id="b" x1="607.72" x2="607.72" y1="1316.6" y2="1357.6" gradientUnits="userSpaceOnUse">
   <stop stop-color="#020202" offset="0"/>
   <stop stop-color="#020202" offset=".93438"/>
   <stop stop-color="#9e9c9a" offset=".96867"/>
   <stop stop-color="#b5a183" offset="1"/>
  </linearGradient>
 </defs>
 <g transform="translate(-271.95 -238.09)" fill-rule="evenodd">
  <path d="m731.61 1066.2s6.5409 3.2717 18.455-3.8495c15.437-9.2275 35.348-46.966 35.836-57.744 2.0539-45.379 8.2196-91.421 20.796-122.06 28.534-69.507 124.74-174.16 124.73-330.94-0.00658-144.53-142.54-311.85-309.53-313.09-271.41-2.0516-346.95 220.82-349.52 328.9-1.964 82.573 43.496 172.7 107.01 280.49s30.061 119.98 49.687 167.95c13.831 33.804 30.371 48.4 30.371 48.4l272.16 1.9443z" fill="#b3b3b3" stroke="#666" stroke-width=".73102"/>
  <path transform="matrix(.73102 0 0 .73102 161.89 215.23)" d="m794.18 1162.2c20.035-12.214 45.346-86.336 45.263-100.54-0.34532-59.747 10.611-120.37 26.846-160.7 36.836-91.515 161.04-229.31 161.03-435.73-0.0084-190.29-184.01-410.59-399.59-412.23-350.38-2.7013-447.89 290.74-451.21 433.04-2.5354 108.72 56.152 227.38 138.15 369.3s38.807 157.98 64.143 221.13c17.856 44.508 38.207 81.038 38.207 81.038s361.71 14.118 377.17 4.6921z" fill="#fff" filter="url(#ag)"/>
 </g>
 <g transform="translate(-271.95 -238.09)">
  <path d="m520.18 1319.1s13.572 16.286 21.715 23.072 2.677 7.1052 18.629 12.043 26.18 8.3141 45.18 7.7096c19.039-0.6056 22.084-4.3379 34.802-7.0708s16.069-3.8607 16.069-3.8607l38.679-38.679-175.07 6.7858z" fill="url(#b)" fill-rule="evenodd" stroke="#000" stroke-width=".73102"/>
  <path d="m751.53 1064.2s-2.4861 1.786-8.7349 4.3972c-1.6891 0.7058-1.623 11.563-1.5386 19.859 0.06975 6.6854 8.14 10.678 8.14 21.314s-9.031 6.2704-10.965 13.039 0.15836 11.838 0.15836 11.838 9.3413 5.1104 10.308 12.846-8.7671 9.1069-11.668 14.909 2.485 15.747 2.485 15.747 8.7671-0.797 8.5971 10.285c-0.13345 8.7016-11.709 9.5112-12.676 15.313s-1.6501 13.204 8.4039 15.343c2.0099 0.4275 6.3876 2.7362 2.8481 12.33-2.8792 7.804-12.272 6.6928-12.272 13.462s-0.05278 9.7985 4.782 11.732 9.5587 6.032 2.6782 13.227c-6.5344 6.8331-38.477 41.044-48.413 43.706-18.182 4.872-58.932 6.5872-88.908 6.5872s-75.199 1.4625-90.215-2.561c-3.8429-1.0297-37.02-31.898-40.378-38.221-4.4667-8.4111-0.91899-14.472-1.8812-20.699-0.90098-5.8311-3.5575-1.3482-8.3511-5.3448-8.9432-7.4563-0.74423-15.665 3.1236-17.598s6.6748-13.45-0.09395-20.219-9.7914-11.687-4.0198-17.224c11.365-10.902 7.6533-16.28 1.8516-23.049s-5.7371-9.8264-3.3812-15.419 10.149 0.6652 8.216-14.089c-2.0011-15.274-3.1036-4.224-7.8529-14.762-3.3713-7.4803 2.6021-46.701 2.6021-46.701l-2.2738-3.3052-1.424-14.153-2.9009-2.9008s140.69-7.0116 160.99-5.0777 134.69 5.388 132.76 5.388z" fill="url(#d)" fill-rule="evenodd"/>
  <path transform="matrix(.73102 0 0 .73102 161.89 215.23)" d="m568.79 1166.2s-6.5164-0.9309-5.5854 8.3782 3.7236 19.549 3.7236 19.549-8.3782-13.033-3.7236 5.5854 7.4473 18.618 0 22.342 17.687 20.48 17.687 20.48-119.16 12.102-134.98 12.102 121.95 7.4472 133.12 6.5163-2.7927 3.7237-7.4473 6.5164 31.651 5.5854 53.993 2.7927 8.3782-8.3782-4.6545-9.3091 15.825-0.9309 40.029-2.7927-20.48-11.171-34.444-13.033-34.444-6.5164-9.3091-6.5164 34.444 3.7236 34.444-3.7236 3.7236-33.513 0-36.306 5.5855 0.9309-0.93091-9.3091-30.72-10.24-30.72-10.24 25.135-5.5854 45.615-8.3782-97.745-3.7236-96.815-4.6545z" fill="#646460" fill-rule="evenodd" filter="url(#a)"/>
  <path transform="matrix(.73102 0 0 .73102 161.89 215.23)" d="m436.6 1287.2s55.855 2.7927 94.953-0.9309 61.44-5.5855 90.298-3.7237 26.996 0.9309 52.131-0.9309 1.8618-9.3091-29.789-7.4473-64.233-1.8618-90.298 2.7928-50.269 3.7236-67.956 3.7236-50.269 7.4473-49.338 6.5164z" fill="#646460" fill-rule="evenodd" filter="url(#i)"/>
  <path transform="matrix(.73102 0 0 .73102 161.89 215.23)" d="m446.84 1313.3c3.7236 0 51.2-6.5163 84.713-7.4472s53.062-9.3091 81.92-6.5164 38.167 3.7236 59.578 5.5854 8.3782-0.9309-13.033 3.7237-52.131 11.171-42.822 11.171 40.96-0.9309 26.065 2.7927-22.342 8.3782-53.993 8.3782-72.611-3.7236-42.822-6.5164 86.575-1.8618 52.131-5.5854-70.749-3.7237-91.229-2.7928-61.44 0-60.509-2.7927z" fill="#646460" fill-rule="evenodd" filter="url(#j)"/>
  <path transform="matrix(.73102 0 0 .73102 161.89 215.23)" d="m461.73 1366.3s63.302 0 86.575-1.8618 25.135-9.3091 51.2-8.3782 53.993-2.7927 69.818 0.9309 28.858 2.7928 0.93091 4.6546-51.2 4.6545-46.545 7.4473 27.927 5.5854 21.411 10.24-4.6546 4.6545-39.098 5.5854-87.505 5.5855-61.44-0.9309 88.436-11.171 41.891-11.171-116.36-4.6545-124.74-6.5164z" fill="#646460" fill-rule="evenodd" filter="url(#k)"/>
  <path transform="matrix(.73102 0 0 .73102 161.89 215.23)" d="m450.56 1419.4c5.5854 0 73.542 0 88.436-0.931s25.135-9.309 54.924-9.309 31.651 0.9309 55.855 4.6545 42.822 1.8618 50.269 1.8618 0-4.6545-28.858 4.6546c-8.7144 2.8111-14.058 12.196-9.5852 23.509 1.289 3.2604 6.5529 4.1799 9.6428 7.6484 3.9406 4.4234 8.3503 8.9877 10.69 13.621 10.542 20.872-16.741 45.441-37.731 45.712-36.125 0.4657-57.61 0.8642-86.78 1.0232-1.988 0.0109-31.543-21.395-22.664-42.096 2.1805-5.0837 6.6724-12.991 10.333-17.487 2.7088-3.3271 4.8034-3.3544 5.9991-6.4536 3.7682-9.7671-0.12373-17.759-1.8536-18.029-29.789-4.6545-100.54-7.4472-98.676-8.3781z" fill="#646460" fill-rule="evenodd" filter="url(#a)"/>
  <path transform="matrix(.73102 0 0 .73102 161.89 215.23)" d="m612.54 1176.4c26.065 0 68.887-9.3091 90.298-1.8618s27.927-1.8618 30.72 3.7236-0.93091 14.895-4.6546 16.756 6.5164 18.618 5.5855 30.72-43.753 19.549-80.058 18.618-43.753-1.8619-19.549-8.3782 25.135-12.102 24.204-23.273-11.171-12.102-10.24-15.825 12.102 0.9309 5.5854-8.3782-40.029-12.102-41.891-12.102z" fill="#f3f0ed" fill-rule="evenodd" filter="url(#l)"/>
  <path transform="matrix(.73102 0 0 .73102 161.89 215.23)" d="m625.57 1259.3s40.96-4.6545 66.095 0 58.647 0 19.549 9.3091-74.473 12.102-100.54 11.171-16.756-0.9309 13.964-7.4473 17.687-11.171 7.4473-11.171-3.7236-0.9309-6.5164-1.8618z" fill="#f3f0ed" fill-rule="evenodd" filter="url(#m)"/>
  <path transform="matrix(.73102 0 0 .73102 161.89 215.23)" d="m619.99 1313.3s36.305-4.6545 71.68 0.9309 75.404 7.4473 6.5164 12.102-112.64 8.3782-112.64 8.3782 30.72 0 52.131-9.3091-15.825-9.3091-17.687-12.102z" fill="#5b5a58" fill-rule="evenodd" filter="url(#n)"/>
  <path transform="matrix(.73102 0 0 .73102 161.89 215.23)" d="m626.5 1371s29.789-2.7927 65.164-1.8618 108.92-4.6546 48.407 5.5854-94.953 12.102-115.43 14.895-11.171 0.9309 12.102-7.4473-10.24-8.3782-10.24-11.171z" fill="#f3f0ed" fill-rule="evenodd" filter="url(#o)"/>
  <path transform="matrix(.73102 0 0 .73102 161.89 215.23)" d="m421.09 1253.5s43.974-1.3325 101.27 2.6651 142.58 5.3302 66.627 13.326-161.24 14.658-161.24 14.658l-6.6627-30.649z" fill="#938a85" fill-rule="evenodd" filter="url(#p)"/>
  <path transform="matrix(.73102 0 0 .73102 161.89 215.23)" d="m418.42 1316.2c6.6627-1.3326 51.969-6.6628 111.93 0s94.611 11.993 33.314 14.658-138.59 11.993-138.59 11.993l-6.6627-26.651z" fill="#938a85" fill-rule="evenodd" filter="url(#q)"/>
  <path transform="matrix(.73102 0 0 .73102 161.89 215.23)" d="m421.09 1368.1s37.311 11.993 93.278 7.9953 90.613-2.6651 83.951-1.3326-31.981 19.988-81.286 18.656-95.944 0-95.944 0v-25.318z" fill="#938a85" fill-rule="evenodd" filter="url(#r)"/>
  <path transform="matrix(.73102 0 0 .73102 161.89 215.23)" d="m642.01 1284.2c10.476 0 43.399-8.9791 73.33-5.9861s-4.4896 14.965-38.91 16.462-32.923-8.9792-34.42-10.476z" fill="#f3f0ed" fill-rule="evenodd" filter="url(#s)"/>
  <path transform="matrix(.73102 0 0 .73102 161.89 215.23)" d="m636.02 1345.6c8.9791 0 22.448-2.993 52.378-4.4896s56.868-1.4965 56.868-1.4965-23.944 8.9792-56.868 10.476-49.385-4.4896-52.378-4.4896z" fill="#f3f0ed" fill-rule="evenodd" filter="url(#t)"/>
  <path transform="matrix(.73102 0 0 .73102 161.89 215.23)" d="m633.03 1401c5.9861 0 2.993-5.9861 44.896-7.4826s62.854 2.9931 62.854 2.9931 10.476 1.4965-37.413 7.4826-68.84-4.4896-70.337-2.9931z" fill="#f3f0ed" fill-rule="evenodd" filter="url(#u)"/>
  <path transform="matrix(.73102 0 0 .73102 161.89 215.23)" d="m658.47 1429.4c8.9791 0 13.469-2.9931 37.413-2.9931s4.4896 5.9861 4.4896 5.9861-2.993 2.993-23.944 4.4896-14.965-4.4896-17.958-7.4826z" fill="#f3f0ed" fill-rule="evenodd" filter="url(#v)"/>
  <path transform="matrix(.73102 0 0 .73102 161.89 215.23)" d="m425.87 1448.8s125.54 3.4365 177.28 3.4365 184-9.9219 184-9.9219" fill="none" filter="url(#w)" stroke="url(#e)" stroke-opacity=".53271" stroke-width="11"/>
  <path transform="matrix(.73102 0 0 .73102 161.89 215.23)" d="m789.21 1240s1.674-6.6195-10.393 1.7349 11.139 15.78 11.139 15.78l-0.74577-17.515z" fill="#e3dcd4" fill-opacity=".25701" fill-rule="evenodd" filter="url(#af)"/>
  <path transform="matrix(.73102 0 0 .73102 161.89 215.23)" d="m784.88 1296s-11.634-4.2076-12.562 5.075 18.565 15.78 18.565 15.78l-6.0033-20.856z" fill="#e3dcd4" fill-opacity=".25701" fill-rule="evenodd" filter="url(#ae)"/>
  <path transform="matrix(.73102 0 0 .73102 161.89 215.23)" d="m782.53 1349.4s-12.996-4.6414-15.78 4.6413 20.543 15.468 20.543 15.468l-4.763-20.11z" fill="#e3dcd4" fill-opacity=".25701" fill-rule="evenodd" filter="url(#ad)"/>
  <path transform="matrix(.73102 0 0 .73102 161.89 215.23)" d="m779.99 1403.7s-6.7491-5.1358-8.6056 4.1469 15.468 15.78 15.468 15.78l-6.8628-19.927z" fill="#e3dcd4" fill-opacity=".25701" fill-rule="evenodd" filter="url(#ac)"/>
  <path transform="matrix(.73102 0 0 .73102 161.89 215.23)" d="m423.48 1250.8s150.77-5.543 191.79-8.8688 164.07-1.1086 164.07-1.1086-104.21 18.846-158.53 18.846-197.33-7.7602-197.33-8.8687z" fill="#5b5a58" fill-rule="evenodd" filter="url(#x)"/>
  <path transform="matrix(.73102 0 0 .73102 161.89 215.23)" d="m426.81 1311.8s147.44-12.194 191.79-12.194 168.51-2.2172 160.75-1.1086-44.344 13.303-115.29 15.52-239.46 1.1086-237.24-2.2172z" fill="#64625c" fill-rule="evenodd" filter="url(#y)"/>
  <path transform="matrix(.73102 0 0 .73102 161.89 215.23)" d="m434.57 1366.1s117.51-7.7602 166.29-8.8688 174.05-5.5429 174.05-5.5429-17.737 12.194-82.036 14.412-261.63 4.4343-258.3 0z" fill="#64625c" fill-rule="evenodd" filter="url(#z)"/>
  <path transform="matrix(.73102 0 0 .73102 161.89 215.23)" d="m431.24 1423.7s133.03-7.7601 180.7-12.194 165.18-6.6515 165.18-6.6515-12.195 3.3258-78.71 12.194-270.5 8.8687-267.17 6.6515z" fill="#64625c" fill-rule="evenodd" filter="url(#aa)"/>
  <path transform="matrix(.73102 0 0 .73102 161.89 215.23)" d="m419.03 1185.5s119.72-4.4895 172.1-2.993 202.03 4.4895 202.03 4.4895" fill="none" filter="url(#ab)" stroke="#4b4b48" stroke-width="6"/>
 </g>
 <g transform="translate(-271.95 -238.09)" fill-rule="evenodd">
  <path d="m583.89 706.66c-0.77068 0.0077 0.50171 89.549-0.31029 89.598 0.00252 1.7396 0.02206 6.2574 0.02284 7.2874 0.00978 12.906-26.966 19.035-31.457 17.476-10.299-3.5757-10.679 11.379-11.148 23.69-0.65548 17.219 8.7278 57.259 6.465 64.147-0.13344 0.40619-0.24025 0.73113-0.36551 1.0965 2.5901-1.7062 5.1193-4.3616 7.2417-8.4296 8.2622-15.836 10.338-13.07 2.7642-32.348s-14.458-34.43 4.8202-38.562 21.339-12.401 40.618-8.2697 41.989 2.0851 46.808 25.494-2.7401 38.543 4.145 50.936c2.5159 4.5287 8.0422 5.1673 10.841 8.6422-0.89994-4.9535-1.7582-9.4513-2.1017-13.57-1.6945-20.317 7.9978-65.081 2.6956-72.371s-13.236 1.6947-30.475-4.5918c-9.3397-3.4059-9.6968-6.1456-9.3206-12.519-1.182-0.2149 1.3178-103.3-4.001-103.18-13.128 0.29604-7.4722 102.6-17.507 100.92-7.1478-1.1989-14.704-95.493-19.736-95.443z" fill="#96948f"/>
  <path d="m599.34 847.82c-23.414 0.57317-16.105 39.916-18.139 64.057-1.7728 21.049 0.50346 122.68 1.622 152.84 12.453 0.5607 26.504 0.5319 39.612 0-0.14369-27.466-0.7016-131.12-1.3021-150.13-0.68851-21.799 4.135-66.066-20.651-66.747-0.38729-0.01065-0.77058-0.0317-1.1422-0.0226z" fill="url(#g)"/>
  <path d="m594.59 865.32c-3.2085 0.10725-5.9633 1.4693-8.5667 4.546-7.5736 8.9507-9.6543 13.08-16.539 15.146s-6.8812 8.9467-20.651 20.651c-0.35997 0.30598-0.70488 0.62723-1.0508 0.93663-0.02214 0.47653-0.05825 0.90004-0.11422 1.2793-0.02533 0.17163-0.0587 0.32912-0.09138 0.47973-0.0371 0.18076-0.0655 0.35426-0.11422 0.50258-0.42795 1.3027-0.79536 2.3352-1.1422 3.2668-0.09521 0.25572-0.20746 0.54218-0.29698 0.77671-0.46747 1.234-0.86333 2.2256-1.1879 3.1297-0.15325 0.42682-0.28536 0.83439-0.4112 1.2564s-0.24136 0.8636-0.34267 1.325-0.1945 0.9629-0.27413 1.5077-0.14479 1.1323-0.2056 1.8047c0.6812-0.49872 0.41635 2.629-0.34267 8.2012-0.08209 5.2905-0.09137 12.849-0.09138 24.375 0 13.918-2.1354 76.487 3.084 105.11 0.05371 0.2945 0.18511 0.5681 0.38835 0.8452 3.0166 1.8393 6.6973 2.4448 11.148 1.5078 11.766-2.4775-13.074-182.46 33.056-152.85 20.892 13.408 21.273-5.413 33.718-6.1909 33.049-2.0655 27.557 123.23 31 156.96 0.05315 0.5209 0.42177 2.0592 0.98231 3.9749 5.9765-1.0958 10.167-2.4261 11.582-3.9749 0.03936-0.6646 0.07987-1.2998 0.11422-2.0103 0.06234-1.2891 0.15566-2.6813 0.27414-4.1348-0.57323-23.357-0.99256-113.43-1.5991-126.17-0.27367-5.7472-1.0042-10.927-1.8047-15.694-0.39737-2.3664-0.79329-4.6436-1.1879-6.8077l-0.11422-0.09137c-21.344-18.59-9.639-15.826-24.786-22.022s-2.068 1.3663-19.281-7.5844c-11.296-5.8739-19.026-10.256-25.152-10.052z" fill="url(#h)"/>
  <path d="m623.64 686.08c-12.643-0.04299-39.317 2.6816-49.755 2.1017-11.93-0.66276-16.787 7.1936-6.5564 14.072 0.14053 0.09448 0.2912 0.18522 0.43405 0.27413 4.6819 1.2531 9.3447 2.185 13.752 2.5814 1.1527-0.11121 1.8961-0.22845 1.8961-0.22845v0.36552c0.40577 0.02222 0.81036 0.05639 1.2108 0.06853 18.286 0.55412 23.664 5.1063 39.772 1.4849 0.09012-0.62296 0.17792-1.0884 0.29698-1.3021 4.5658-8.1944 15.836-1.215 21.702-10.486 3.3804-5.3423-8.2537-7.5217-18.276-8.7266-1.1457-0.13774-2.6714-0.19946-4.4775-0.2056z" fill="#2c2e2d" stroke="#000" stroke-width=".73102"/>
  <path d="m546.25 1060.7c0-28.74-3.0796-95.73-3.0796-109.48 0-41.527-0.07203-31.975 4.2915-45.097 2.2629-6.8049-7.1294-46.346-6.474-63.357 0.46866-12.162 0.85398-26.944 11.154-23.411 4.4906 1.5401 31.469-4.5116 31.459-17.261-0.01057-13.776-0.19413-97.476-0.19413-97.476s-9.4065 1.845-16.068-2.5792c-10.231-6.7953-5.3758-14.556 6.5544-13.901s45.055-2.9802 54.221-1.8916c10.022 1.1903 21.678 3.3463 18.297 8.6238-5.8663 9.1583-17.152 2.2683-21.718 10.363-2.1641 3.8367 0.66536 78.112 0.74321 89.969 0.0804 12.248-3.4646 15.573 9.0045 20.065 17.239 6.2103 25.193-2.6518 30.495 4.5502s-4.3928 51.42-2.6983 71.492c0.75534 8.9465 4.0169 19.549 4.6797 33.298s1.754 127.62 1.754 135.11-122.42 3.9536-122.42 0.9849z" fill="url(#c)" stroke="#808080" stroke-width=".72659"/>
  <path d="m583.89 706.66c-0.77068 0.0077 0.50171 89.549-0.31029 89.598 0.00252 1.7396 0.02206 6.2574 0.02284 7.2874 0.00978 12.906-26.966 19.035-31.457 17.476-10.299-3.5757-10.679 11.379-11.148 23.69-0.65548 17.219 8.7278 57.259 6.465 64.147-0.13344 0.40619-0.24025 0.73113-0.36551 1.0965 2.5901-1.7062 5.1193-4.3616 7.2417-8.4296 8.2622-15.836 10.338-13.07 2.7642-32.348s-14.458-34.43 4.8202-38.562 21.339-12.401 40.618-8.2697 41.989 2.0851 46.808 25.494-2.7401 38.543 4.145 50.936c2.5159 4.5287 8.0422 5.1673 10.841 8.6422-0.89994-4.9535-1.7582-9.4513-2.1017-13.57-1.6945-20.317 7.9978-65.081 2.6956-72.371s-13.236 1.6947-30.475-4.5918c-9.3397-3.4059-9.6968-6.1456-9.3206-12.519-1.182-0.2149 1.3178-103.3-4.001-103.18-13.128 0.29604-7.4722 102.6-17.507 100.92-7.1478-1.1989-14.704-95.493-19.736-95.443z" fill="#96948f"/>
 </g>
 <g transform="translate(-271.95 -238.09)">
  <path d="m549.34 910.62s4.4706-39.49 5.5882-51.784 0-19.373 0-29.059 4.4706-4.8431 0.37255-20.863-33.529-92.765-40.608-106.92-33.902-77.863-40.235-92.02-18.255-39.49-18.255-39.49" fill="none" stroke="#333" stroke-linecap="round" stroke-width="7.3102"/>
  <path d="m657.01 895.34c0-3.7255 0-40.98-1.4902-47.314s-6.3334-10.804-6.3334-10.804 4.4706-14.529 4.098-17.137-3.3529-9.3137-0.37255-21.98 24.588-65.196 31.294-80.471 26.078-76.373 33.529-92.392 20.49-53.275 20.49-53.275" fill="none" stroke="#333" stroke-linecap="round" stroke-width="7.3102"/>
  <path d="m630.66 688.84s7.8537-28.47 13.253-49.577 22.579-61.848 21.598-71.174-8.8354-14.726-10.799-3.9269 11.29 18.162 11.781 4.4177 0-33.378 0-33.378" fill="none" stroke="#000" stroke-width=".73102"/>
  <path d="m580.1 694.73c-0.98171-2.4543-7.8537-22.089-11.29-42.705s-11.29-43.196-16.689-55.958-7.3629-18.162-11.29-29.942 1.9634-15.217 6.872-3.436-1.4726 22.579-6.872 9.3263-10.308-29.942-10.308-29.942" fill="none" stroke="#000" stroke-width=".73102"/>
  <path d="m456.4 571.52s10.799-7.8537 28.961-8.8354 20.125-0.98171 38.287-0.49085 11.781 1.4726 30.433 0 28.47-2.9452 53.013 1.4726 26.506 11.781 45.159 9.3263 20.616-5.8903 40.25-6.872 40.25 2.4543 43.686 4.4177 3.9269 2.9452 3.9269 2.9452" fill="none" stroke="#000" stroke-width=".73102"/>
  <path d="m458.06 573.96s-3.2099-4.9683-1.5373-3.4824 2.3745 2.9395 2.3745 2.9395m0.13815-0.08479s-3.08-5.0189-1.4074-3.533 2.275 3.0028 2.275 3.0028m0.14146-0.07919s-2.877-5.1386-1.265-3.5868 2.179 3.0788 2.179 3.0788m0.14378-0.07489s-2.7203-5.2232-1.156-3.6234 2.1624 3.0992 2.1624 3.0992m0.06153-0.02919s-2.5522-5.3073-1.0397-3.6584 2.0624 3.1666 2.0624 3.1666m0.14609-0.07025s-2.4661-5.3574-1.01-3.6586 1.9546 3.2342 1.9546 3.2342m0.14837-0.06529s-2.372-5.3902-0.91597-3.6913 1.8614 3.2821 1.8614 3.2821m0.1506-0.05999s-2.1793-5.4709-0.78446-3.7215 1.8386 3.3016 1.8386 3.3016m0.1506-0.05999s-2.0821-5.5248-0.75354-3.7245 1.7141 3.3678 1.7141 3.3678m0.15273-0.05433s-1.9736-5.5484-0.64499-3.7481 1.7141 3.3678 1.7141 3.3678m0.15273-0.05433s-1.8659-5.5905-0.60891-3.7395 1.5807 3.4325 1.5807 3.4325m0.15474-0.04829s-1.7545-5.6215-0.49751-3.7705 1.5807 3.4324 1.5807 3.4324m0.15474-0.04829s-1.6387-5.6571-0.45894-3.756 1.4383 3.4945 1.4383 3.4945m0.15659-0.04188s-1.5219-5.6889-0.34206-3.7878 1.4383 3.4945 1.4383 3.4945m0.15659-0.04189s-1.4001-5.7241-0.30314-3.774 1.2866 3.5531 1.2866 3.5531m0.15825-0.03512s-1.2758-5.749-0.17885-3.799 1.2866 3.5531 1.2866 3.5531m0.15826-0.03512s-1.1494-5.7909-0.14106-3.7936 1.1259 3.6072 1.1259 3.6072m0.15967-0.02798s-1.0166-5.8004-0.00825-3.8031 1.1259 3.6072 1.1259 3.6072m0.15967-0.02798s-1.0166-5.8004-0.00826-3.8031 0.9926 3.6443 0.9926 3.6443m0.1608-0.02051s-0.74492-5.8415 0.16915-3.7993 0.95645 3.6558 0.95645 3.6558m0.1608-0.02051s-0.74493-5.8415 0.16915-3.7993 0.95645 3.6558 0.95645 3.6558m0.16079-0.02051s-0.6036-5.8586 0.21071-3.7746 0.77868 3.6977 0.77868 3.6977m0.1616-0.01271s-0.46178-5.8706 0.35254-3.7867 0.77867 3.6977 0.77867 3.6977m0.1616-0.01272s-0.46178-5.8706 0.35254-3.7867 0.69691 3.7131 0.69691 3.7131m0.16191-0.00818s-0.29693-5.8818 0.45867-3.7757 0.6747 3.7185 0.6747 3.7185m0.16191-0.00818s-0.29694-5.8818 0.45868-3.7757 0.67469 3.7185 0.67469 3.7185m0.16191-0.00818s-0.29694-5.8818 0.45868-3.7757 0.67469 3.7185 0.67469 3.7185m0.16191-0.00817s-0.29694-5.8818 0.45868-3.7757 0.67469 3.7185 0.67469 3.7185m0.16192-0.00817s-0.29695-5.8818 0.45867-3.7757 0.67469 3.7185 0.67469 3.7185m0.16192-0.00817s-0.29695-5.8818 0.45867-3.7757 0.67469 3.7185 0.67469 3.7185m0.16192-0.00817s-0.29695-5.8818 0.45867-3.7757 0.67469 3.7185 0.67469 3.7185m0.16191-0.00817s-0.29694-5.8818 0.45868-3.7757 0.6747 3.7185 0.6747 3.7185m0.1619-0.00817s-0.23554-5.8888 0.47581-3.7674 0.59672 3.7316 0.59672 3.7316m0.16204-0.00479s-0.17379-5.8866 0.53756-3.7651 0.59672 3.7316 0.59672 3.7316m0.16204-0.00479s-0.17379-5.8866 0.53756-3.7651 0.59672 3.7316 0.59672 3.7316m0.16204-0.00478s-0.17379-5.8866 0.53756-3.7651 0.59672 3.7316 0.59672 3.7316m0.16204-0.00478s-0.17379-5.8866 0.53756-3.7651 0.59672 3.7316 0.59672 3.7316m0.16204-0.00479s-0.17379-5.8866 0.53756-3.7651 0.59672 3.7316 0.59672 3.7316m0.16204-0.00479s-0.07309-5.9047 0.56515-3.7602 0.46848 3.7499 0.46848 3.7499m0.16211 7.6e-4s0.02804-5.8891 0.66628-3.7445 0.46848 3.7499 0.46848 3.7499m0.16211 7.7e-4s0.02805-5.8891 0.66628-3.7445 0.46849 3.7499 0.46849 3.7499m0.1621 7.8e-4s0.02804-5.8891 0.66628-3.7445 0.46849 3.7499 0.46849 3.7499m0.1621 7.8e-4s0.02805-5.8891 0.66628-3.7445 0.46849 3.7499 0.46849 3.7499m0.16211 7.7e-4s0.02804-5.8891 0.66628-3.7445 0.46848 3.7499 0.46848 3.7499m0.16211 7.7e-4s0.02804-5.8891 0.66628-3.7445 0.41116 3.7563 0.41116 3.7563m0.16206 0.00393s0.14252-5.8876 0.73897-3.731 0.39552 3.7584 0.39552 3.7584m0.16207 0.00392s0.14251-5.8876 0.73896-3.731 0.39552 3.7584 0.39552 3.7584m0.16207 0.00393s0.14251-5.8876 0.73896-3.731 0.39552 3.7584 0.39552 3.7584m0.16207 0.00393s0.14251-5.8876 0.73896-3.731 0.39552 3.7584 0.39552 3.7584m0.16207 0.00392s0.14251-5.8876 0.73896-3.731 0.39552 3.7584 0.39552 3.7584m0.16207 0.00392s0.14252-5.8876 0.73896-3.731 0.39553 3.7584 0.39553 3.7584m0.16206 0.00393s0.14252-5.8876 0.73897-3.731 0.39552 3.7584 0.39552 3.7584m0.16207 0.00393s0.14251-5.8876 0.73896-3.731 0.39552 3.7584 0.39552 3.7584m0.16207 0.00392s0.17423-5.8887 0.74744-3.7258 0.35507 3.7624 0.35507 3.7624m0.16202 0.00566s0.20583-5.8857 0.77904-3.7228 0.35507 3.7624 0.35507 3.7624m0.16202 0.00566s0.20582-5.8857 0.77904-3.7228 0.35507 3.7624 0.35507 3.7624m0.16201 0.00567s0.20583-5.8857 0.77905-3.7228 0.35507 3.7624 0.35507 3.7624m0.16201 0.00567s0.20583-5.8857 0.77905-3.7228 0.30266 3.7668 0.30266 3.7668m0.1619 0.00853s0.31004-5.8811 0.84486-3.7084 0.28837 3.7681 0.28837 3.7681m0.16188 0.00854s0.31005-5.8811 0.84486-3.7084 0.28838 3.7681 0.28838 3.7681m0.16189 0.00853s0.31004-5.8811 0.84486-3.7084 0.26255 3.7685 0.26255 3.7685m0.1618 0.00995s0.36145-5.8779 0.87721-3.7007 0.2554 3.7703 0.2554 3.7703m0.16179 0.00995s0.36146-5.8779 0.87723-3.7007 0.25539 3.7703 0.25539 3.7703m0.1618 0.00995s0.36145-5.8779 0.87722-3.7007 0.25539 3.7703 0.25539 3.7703m0.1618 0.00994s0.36145-5.8779 0.87722-3.7007 0.38623 3.7682 0.38623 3.7682m0.16208 0.00276s0.10032-5.8879 0.71215-3.7358 0.4224 3.7552 0.4224 3.7552m0.16207 0.00276s0.10032-5.8879 0.71215-3.7358 0.55805 3.7364 0.55805 3.7364m0.16203-0.00472s-0.17117-5.8865 0.53923-3.7648 0.59504 3.7318 0.59504 3.7318m0.16204-0.00471s-0.17117-5.8865 0.53922-3.7648 0.68454 3.7275 0.68454 3.7275m0.16183-0.00965s-0.35021-5.8788 0.42444-3.7796 0.70834 3.7122 0.70834 3.7122m0.16183-0.00964s-0.3502-5.8788 0.42445-3.7796 0.70834 3.7122 0.70834 3.7122m0.16182-0.00964s-0.3502-5.8788 0.42445-3.7796 0.70834 3.7122 0.70834 3.7122m0.16183-0.00964s-0.39478-5.8745 0.4117-3.7873 0.76471 3.701 0.76471 3.701m0.16166-0.0121s-0.43954-5.8729 0.36695-3.7857 0.7647 3.701 0.7647 3.701m0.16167-0.0121s-0.43955-5.8729 0.36694-3.7857 0.76471 3.701 0.76471 3.701m0.16166-0.0121s-0.43954-5.8729 0.36694-3.7857 0.76471 3.701 0.76471 3.701m0.16166-0.0121s-0.43953-5.8729 0.36695-3.7857 0.77879 3.6984 0.77879 3.6984m0.1616-0.01288s-0.46795-5.8706 0.34862-3.7874 0.7826 3.6972 0.7826 3.6972m0.16161-0.01288s-0.46795-5.8706 0.34861-3.7874 0.7826 3.6972 0.7826 3.6972m0.1616-0.01288s-0.46795-5.8706 0.34862-3.7874 0.7826 3.6972 0.7826 3.6972m0.1616-0.01289s-0.46795-5.8706 0.34862-3.7874 0.7826 3.6972 0.7826 3.6972m0.1616-0.01288s-0.46795-5.8706 0.34861-3.7874 0.7826 3.6972 0.7826 3.6972m0.1616-0.01288s-0.46795-5.8706 0.34862-3.7874 0.7826 3.6972 0.7826 3.6972m0.1616-0.01288s-0.46795-5.8706 0.34862-3.7874 0.78259 3.6972 0.78259 3.6972m0.1616-0.01288s-0.46795-5.8706 0.34862-3.7874 0.7826 3.6972 0.7826 3.6972m0.1616-0.01288s-0.46795-5.8706 0.34862-3.7874 0.7826 3.6972 0.7826 3.6972m0.1616-0.01288s-0.40403-5.8884 0.36636-3.7877 0.70081 3.7135 0.70081 3.7135m0.16185-0.00932s-0.3383-5.8794 0.43209-3.7787 0.70082 3.7135 0.70082 3.7135m0.16184-0.00931s-0.3383-5.8794 0.43209-3.7787 0.70081 3.7135 0.70081 3.7135m0.16185-0.00931s-0.3383-5.8794 0.43209-3.7787 0.70082 3.7135 0.70082 3.7135m0.16184-0.00931s-0.3383-5.8794 0.43209-3.7787 0.70082 3.7135 0.70082 3.7135m0.08823-0.00424s-0.19092-5.8862 0.52662-3.7668 0.60758 3.73 0.60758 3.73m0.16204-0.00525s-0.19093-5.8862 0.52661-3.7668 0.60759 3.73 0.60759 3.73m0.16203-0.00526s-0.12896-5.8922 0.54374-3.7581 0.52881 3.7419 0.52881 3.7419m0.1621-0.00184s-0.06679-5.8888 0.60591-3.7548 0.52882 3.7419 0.52882 3.7419m0.1621-0.00183s0.00207-5.9016 0.62468-3.7524 0.44118 3.7533 0.44118 3.7533m0.16211 0.00195s0.07091-5.8888 0.69353-3.7396 0.44118 3.7533 0.44118 3.7533m0.1621 0.00195s0.07091-5.8888 0.69352-3.7396 0.3683 3.7564 0.3683 3.7564m0.162 0.00596s0.21645-5.8852 0.78575-3.7213 0.34828 3.763 0.34828 3.763m0.162 0.00595s0.21645-5.8852 0.78575-3.7213 0.34827 3.763 0.34827 3.763m0.16201 0.00595s0.29044-5.885 0.80525-3.7075 0.25371 3.7706 0.25371 3.7706m0.1618 0.01002s0.3641-5.8779 0.8789-3.7004 0.25372 3.7706 0.25372 3.7706m0.16181 0.01002s0.36409-5.8779 0.8789-3.7004 0.18072 3.774 0.18072 3.774m0.1615 0.014s0.50879-5.8672 0.9698-3.6776 0.16075 3.7757 0.16075 3.7757m0.16151 0.01401s0.50878-5.8672 0.96979-3.6777 0.16076 3.7757 0.16076 3.7757m0.1615 0.014s0.57834-5.8674 0.98778-3.6676 0.07198 3.7784 0.07198 3.7784m0.16113 0.01779s0.64652-5.8536 1.056-3.6538 0.07199 3.7784 0.07199 3.7784m0.16114 0.0178s0.64651-5.8536 1.056-3.6539 0.07198 3.7784 0.07198 3.7784m0.16113 0.01779s0.71059-5.8466 1.0718-3.6384-0.01074 3.7791-0.01074 3.7791m0.16071 0.02133s0.77449-5.8381 1.1357-3.6299-0.01073 3.7791-0.01073 3.7791m0.1607 0.02132s0.77449-5.8381 1.1357-3.6299-0.01073 3.7791-0.01073 3.7791m0.16071 0.02133s0.83286-5.8303 1.1498-3.6153-0.0863 3.7782-0.0863 3.7782m0.16024 0.02453s0.89108-5.8215 1.208-3.6065-0.0863 3.7782-0.0863 3.7782m0.16025 0.02454s0.89108-5.8215 1.208-3.6065c0.31698 2.215-0.0863 3.7782-0.0863 3.7782m0.16025 0.02452s0.94425-5.8185 1.2213-3.5981-0.15425 3.776-0.15425 3.776m0.15978 0.02741s0.99566-5.8045 1.2727-3.5842-0.15424 3.776-0.15424 3.776m0.15978 0.02741s0.99565-5.8045 1.2727-3.5842-0.15425 3.776-0.15425 3.776m0.15978 0.0274s0.99565-5.8045 1.2727-3.5842-0.22874 3.7678-0.22874 3.7678m0.15902 0.03144s1.1426-5.7771 1.3632-3.5506-0.25003 3.7707-0.25003 3.7707m0.15903 0.03146s1.1426-5.7771 1.3632-3.5506-0.25004 3.7707-0.25004 3.7707m0.15903 0.03146s1.1426-5.7772 1.3632-3.5506-0.25004 3.7707-0.25004 3.7707m0.15902 0.03145s1.2457-5.7607 1.3874-3.5277-0.38335 3.7595-0.38335 3.7595m0.15781 0.03706s1.3464-5.7331 1.488-3.5001-0.38334 3.7595-0.38334 3.7595m0.15781 0.03706s1.3464-5.7331 1.4881-3.5001-0.38335 3.7595-0.38335 3.7595m0.15781 0.03706s1.4484-5.7163 1.5119-3.4797-0.51464 3.7438-0.51464 3.7438m0.15642 0.04256s1.5462-5.6825 1.6096-3.4459-0.51465 3.7438-0.51465 3.7438m0.15642 0.04256s1.5462-5.6825 1.6096-3.4459-0.51464 3.7438-0.51464 3.7438m0.0635 0.01748s1.731-5.629 1.7214-3.3915-0.6367 3.725-0.6367 3.725m0.15494 0.04765s1.731-5.629 1.7214-3.3915-0.63671 3.725-0.63671 3.725m0.15495 0.04765s1.8142-5.6198 1.7422-3.3834-0.74015 3.7059-0.74015 3.7059m0.15357 0.05194s1.887-5.5787 1.8151-3.3423-0.74015 3.7059-0.74015 3.7059m0.15356 0.05195s1.887-5.5787 1.8151-3.3423-0.7966 3.6898-0.7966 3.6898m0.1525 0.05498s1.9978-5.5401 1.8813-3.3056-0.8138 3.6905-0.8138 3.6905m0.15251 0.055s1.9978-5.5401 1.8813-3.3056-0.82983 3.6848-0.82983 3.6848m0.15218 0.05588s2.0297-5.5284 1.9003-3.2946-0.83507 3.6857-0.83507 3.6857m0.15219 0.05588s2.0297-5.5284 1.9003-3.2946-0.83507 3.6857-0.83507 3.6857m0.15218 0.05587s2.0297-5.5284 1.9003-3.2946-0.83506 3.6857-0.83506 3.6857m0.15218 0.05587s2.0297-5.5284 1.9003-3.2946-0.7615 3.7038-0.7615 3.7038m0.15356 0.05196s1.8874-5.5785 1.8153-3.3421-0.74042 3.7058-0.74042 3.7058m0.15356 0.05196s1.7687-5.5925 1.7859-3.3552-0.59203 3.7322-0.59203 3.7322m0.1555 0.04579s1.6634-5.649 1.6805-3.4116-0.59203 3.7322-0.59203 3.7322m0.1555 0.04579s1.5025-5.6782 1.6434-3.4454-0.38456 3.759-0.38456 3.759m0.15778 0.03711s1.3482-5.732 1.4891-3.4992-0.38456 3.759-0.38456 3.759m0.29928 0.06285s1.0669-5.7916 1.3166-3.5681-0.09812 3.7887-0.09812 3.7887m0.16036 0.02374s0.86248-5.8255 1.1903-3.6122 0.03859 3.7862 0.03859 3.7862m0.16112 0.01793s0.65127-5.8529 1.0589-3.6529 0.17638 3.7798 0.17638 3.7798m0.16166 0.01206s0.43789-5.8727 0.92529-3.689 0.31247 3.7699 0.31247 3.7699m0.16198 0.00625s0.22667-5.8847 0.7922-3.7198 0.44457 3.7574 0.44457 3.7574m0.16211 5.9e-4s0.02132-5.889 0.662-3.7452 0.57094 3.743 0.57094 3.743m0.16204-0.00482s-0.17517-5.8865 0.53667-3.7652 0.59759 3.7315 0.59759 3.7315m0.25454-0.01409s-0.36063-5.8781 0.41773-3.7803 0.71492 3.7108 0.71492 3.7108m0.16181-0.00993s-0.44699-5.8694 0.39284-3.7954 0.82395 3.6882 0.82395 3.6882m0.16144-0.01469s-0.61249-5.8459 0.28364-3.7957 0.9243 3.6643 0.9243 3.6643m0.16098-0.01909s-0.69353-5.8482 0.20259-3.798 0.99123 3.648 0.99123 3.648m0.1605-0.02283s-0.82935-5.8306 0.11422-3.8017 1.0093 3.6419 1.0093 3.6419m0.1605-0.02283s-0.82935-5.8306 0.11422-3.8017 1.0093 3.6419 1.0093 3.6419m0.16049-0.02283s-0.89212-5.8152 0.09558-3.8074 1.0886 3.6189 1.0886 3.6189m0.15996-0.02633s-0.95662-5.811 0.03108-3.8033 1.0886 3.6189 1.0886 3.6189m0.15996-0.02633s-0.95662-5.811 0.03108-3.8033 1.1507 3.5978 1.1507 3.5978m0.15934-0.02985s-1.0842-5.7886-0.05259-3.803 1.168 3.5941 1.168 3.5941m0.15934-0.02985s-1.0842-5.7886-0.05259-3.803 1.227 3.5755 1.227 3.5755m0.15869-0.03317s-1.2048-5.7647-0.13195-3.8011 1.2428 3.569 1.2428 3.569m0.15868-0.03317s-1.2048-5.7647-0.13194-3.8011 1.3109 3.543 1.3109 3.543m0.15782-0.03704s-1.3457-5.7334-0.22506-3.7967 1.3298 3.5374 1.3298 3.5374m0.15782-0.03704s-1.3457-5.7334-0.22505-3.7967 1.3298 3.5374 1.3298 3.5374m0.15782-0.03704s-1.3457-5.7334-0.22506-3.7967 1.3298 3.5374 1.3298 3.5374m0.19496-0.046s-1.42-5.7156-0.2743-3.7935 1.3756 3.5199 1.3756 3.5199m0.15733-0.03909s-1.42-5.7156-0.2743-3.7935 1.3756 3.5199 1.3756 3.5199m0.15733-0.03909s-1.42-5.7156-0.2743-3.7936 1.3756 3.5199 1.3756 3.5199m0.15734-0.03909s-1.3671-5.7324-0.25779-3.7893 1.3091 3.545 1.3091 3.545m0.15804-0.03612s-1.3122-5.741-0.2029-3.7979 1.3091 3.545 1.3091 3.545m0.15804-0.03612s-1.3122-5.741-0.20291-3.7978 1.3091 3.545 1.3091 3.545m0.15804-0.03612s-1.2249-5.7753-0.17718-3.7982 1.1971 3.5845 1.1971 3.5845m0.1591-0.03113s-1.1312-5.7796-0.08347-3.8024 1.1971 3.5845 1.1971 3.5845m0.15909-0.03114s-1.0544-5.7963-0.0598-3.792 1.1012 3.6151 1.1012 3.6151m0.15986-0.02689s-0.9767-5.8076 0.01793-3.8033 1.1011 3.6151 1.1011 3.6151m0.07858-0.01073s-0.81302-5.8328 0.12485-3.8013 0.99906 3.6446 0.99906 3.6446m0.16056-0.02238s-0.81302-5.8328 0.12485-3.8013 0.99907 3.6446 0.99907 3.6446m0.07999-0.00793s-0.65081-5.8531 0.23032-3.7964 0.89751 3.671 0.89751 3.671m0.16113-0.01792s-0.65082-5.8531 0.23031-3.7964 0.89752 3.671 0.89752 3.671m0.16112-0.01791s-0.5744-5.8625 0.25268-3.7835 0.80126 3.6932 0.80126 3.6932m0.16154-0.0137s-0.49762-5.8681 0.32946-3.7891 0.80126 3.6932 0.80126 3.6932m0.16154-0.0137s-0.42878-5.8877 0.3486-3.7895 0.71314 3.7112 0.71314 3.7112m0.16182-0.00984s-0.35782-5.8784 0.41955-3.7802 0.71315 3.7112 0.71315 3.7112m0.16181-0.00985s-0.35781-5.8784 0.41955-3.7802 0.71315 3.7112 0.71315 3.7112m0.16181-0.00985s-0.28585-5.8869 0.43977-3.7703 0.62182 3.7276 0.62182 3.7276m0.162-0.00587s-0.21339-5.8853 0.51222-3.7687 0.62182 3.7276 0.62182 3.7276m0.16201-0.00588s-0.2134-5.8853 0.51222-3.7687 0.62182 3.7276 0.62182 3.7276m0.162-0.00587s-0.13773-5.8873 0.53325-3.7527 0.5258 3.7424 0.5258 3.7424m0.16211-0.00171s-0.06205-5.8889 0.60892-3.7543 0.5258 3.7424 0.5258 3.7424m0.16211-0.0017s-0.06205-5.8889 0.60893-3.7543 0.45654 3.7431 0.45654 3.7431m0.1621 0.00211s0.07647-5.8887 0.69705-3.739 0.43765 3.7537 0.43765 3.7537m0.1621 0.00211s0.07647-5.8887 0.69705-3.739 0.43765 3.7537 0.43765 3.7537m0.16209 0.0021s0.07647-5.8887 0.69706-3.739 0.3734 3.7581 0.3734 3.7581m0.16202 0.00564s0.20467-5.8857 0.77831-3.7229 0.35581 3.7624 0.35581 3.7624m0.16201 0.00563s0.20466-5.8857 0.77831-3.7229 0.35581 3.7624 0.35581 3.7624m0.16201 0.00563s0.26527-5.8947 0.79462-3.7206 0.2789 3.7688 0.2789 3.7688m0.16187 0.00894s0.32482-5.8803 0.85417-3.7062 0.2789 3.7688 0.2789 3.7688m0.16187 0.00894s0.32482-5.8803 0.85417-3.7062 0.27891 3.7688 0.27891 3.7688m0.16186 0.00894s0.38221-5.8805 0.86919-3.6966 0.20558 3.7736 0.20558 3.7736m0.16166 0.01208s0.43908-5.8729 0.92607-3.6889 0.20557 3.7736 0.20557 3.7736m0.16167 0.01208s0.43908-5.8729 0.92607-3.6889 0.15013 3.771 0.15013 3.771m0.16141 0.01512s0.54961-5.8636 0.99537-3.6708 0.13448 3.7768 0.13448 3.7768m0.16141 0.01513s0.5496-5.8636 0.99537-3.6708 0.13447 3.7768 0.13447 3.7768m0.16141 0.01513s0.60496-5.8656 1.0098-3.665 0.06411 3.7786 0.06411 3.7786m0.1611 0.01813s0.65872-5.8523 1.0636-3.6517 0.06411 3.7786 0.06411 3.7786m0.1611 0.01814s0.65872-5.8523 1.0636-3.6517 0.00847 3.7754 0.00847 3.7754m0.16072 0.02117s0.76913-5.8388 1.1324-3.6309-0.00726 3.7791-0.00726 3.7791m0.16073 0.02117s0.76913-5.8388 1.1323-3.6309-0.00726 3.7791-0.00726 3.7791m0.10309 0.01312s0.88435-5.8225 1.2039-3.6078-0.08194 3.7782-0.08194 3.7782m0.16027 0.02434s0.88435-5.8225 1.2039-3.6078-0.08194 3.7782-0.08194 3.7782m0.16027 0.02434s0.94726-5.815 1.2191-3.594-0.16311 3.7756-0.16311 3.7756m0.15972 0.02778s1.0093-5.8021 1.2811-3.5811-0.16311 3.7756-0.16311 3.7756m0.15972 0.02779s1.0804-5.7895 1.2977-3.5625-0.25573 3.7704-0.25573 3.7704m0.15898 0.0317s1.1514-5.7755 1.3686-3.5486-0.34282 3.757-0.34282 3.757m0.15796 0.03642s1.3233-5.7385 1.474-3.506-0.36823 3.761-0.36823 3.761m0.15796 0.03642s1.4391-5.7216 1.5014-3.4851-0.51647 3.7434-0.51647 3.7434m0.15639 0.04263s1.7248-5.6662 1.656-3.4302-0.73486 3.7062-0.73486 3.7062m0.15361 0.05172s2.0884-5.5482 1.8623-3.3224-1.1897 3.5552-1.1897 3.5552m0.14459 0.07318s2.8478-5.1694 2.306-2.9985-1.5047 3.4664-1.5047 3.4664m0.13916 0.08315s3.1373-4.9974 2.5005-2.8525-1.6558 3.3968-1.6558 3.3968m0.13535 0.0892s3.3653-4.8354 2.6205-2.7257-1.9696 3.2104-1.9696 3.2104m0.12478 0.10346s3.9224-4.4139 2.9158-2.4161-2.5897 2.6966-2.5897 2.6966" fill="none" stroke="#000" stroke-width=".31013"/>
  <path d="m731.61 1066.2s6.5409 3.2717 18.455-3.8495c15.437-9.2275 35.348-46.966 35.836-57.744 2.0539-45.379 8.2196-91.421 20.796-122.06 28.534-69.507 124.74-174.16 124.73-330.94-0.00658-144.53-142.54-311.85-309.53-313.09-271.41-2.0516-346.95 220.82-349.52 328.9-1.964 82.573 43.496 172.7 107.01 280.49s30.061 119.98 49.687 167.95c13.831 33.804 30.371 48.4 30.371 48.4l272.16 1.9443z" fill="url(#f)" fill-rule="evenodd" stroke="#666" stroke-width=".73102"/>
 </g>
</svg>
