<?xml version="1.0" encoding="UTF-8"?>
<svg viewBox="0 0 659.85 1124.2" xmlns="http://www.w3.org/2000/svg">
 <defs>
  <filter id="aw">
   <feGaussianBlur stdDeviation="3.629039"/>
  </filter>
  <filter id="ar" x="-.044003" y="-.28222" width="1.088" height="1.5644">
   <feGaussianBlur stdDeviation="3.629039"/>
  </filter>
  <filter id="av" x="-.071386" y="-.11966" width="1.1428" height="1.2393">
   <feGaussianBlur stdDeviation="3.629039"/>
  </filter>
  <filter id="at" x="-.057951" y="-.37495" width="1.1159" height="1.7499">
   <feGaussianBlur stdDeviation="3.629039"/>
  </filter>
  <filter id="as" x="-.058129" y="-.38902" width="1.1163" height="1.778">
   <feGaussianBlur stdDeviation="3.629039"/>
  </filter>
  <filter id="au" x="-.065179" y="-.38338" width="1.1304" height="1.7668">
   <feGaussianBlur stdDeviation="3.629039"/>
  </filter>
  <filter id="ax" x="-.038733" y="-.27134" width="1.0775" height="1.5427">
   <feGaussianBlur stdDeviation="3.629039"/>
  </filter>
  <filter id="bl" x="-.40466" y="-.2959" width="1.8093" height="1.5918">
   <feGaussianBlur stdDeviation="2.631606"/>
  </filter>
  <filter id="az" x="-.035115" y="-.6076" width="1.0702" height="2.2152">
   <feGaussianBlur stdDeviation="3.629039"/>
  </filter>
  <filter id="bk" x="-.30402" y="-.29694" width="1.608" height="1.5939">
   <feGaussianBlur stdDeviation="2.631606"/>
  </filter>
  <filter id="bi" x="-.43208" y="-.31574" width="1.8642" height="1.6315">
   <feGaussianBlur stdDeviation="2.631606"/>
  </filter>
  <filter id="ba">
   <feGaussianBlur stdDeviation="3.629039"/>
  </filter>
  <filter id="bj" x="-.33961" y="-.28963" width="1.6792" height="1.5793">
   <feGaussianBlur stdDeviation="2.631606"/>
  </filter>
  <filter id="ay" x="-.036723" y="-.27034" width="1.0734" height="1.5407">
   <feGaussianBlur stdDeviation="3.629039"/>
  </filter>
  <filter id="ai" x="-.02468" y="-.51281" width="1.0494" height="2.0256">
   <feGaussianBlur stdDeviation="3.629039"/>
  </filter>
  <filter id="aj" x="-.024475" y="-.44505" width="1.049" height="1.8901">
   <feGaussianBlur stdDeviation="3.629039"/>
  </filter>
  <filter id="bo" x="-.025588" y="-.51318" width="1.0512" height="2.0264">
   <feGaussianBlur stdDeviation="3.629039"/>
  </filter>
  <filter id="bm" x="-.022912" y="-.80683" width="1.0458" height="2.6137">
   <feGaussianBlur stdDeviation="3.629039"/>
  </filter>
  <filter id="bh">
   <feGaussianBlur stdDeviation="24.270561"/>
  </filter>
  <filter id="bn" x="-.025178" y="-.4338" width="1.0504" height="1.8676">
   <feGaussianBlur stdDeviation="3.629039"/>
  </filter>
  <filter id="aq" x="-.049079" y="-.29099" width="1.0982" height="1.582">
   <feGaussianBlur stdDeviation="3.629039"/>
  </filter>
  <filter id="ap" x="-.048918" y="-.34308" width="1.0978" height="1.6862">
   <feGaussianBlur stdDeviation="3.629039"/>
  </filter>
  <filter id="an" x="-.079725" y="-.81278" width="1.1595" height="2.6256">
   <feGaussianBlur stdDeviation="3.629039"/>
  </filter>
  <filter id="ao" x="-.10275" y="-.50583" width="1.2055" height="2.0117">
   <feGaussianBlur stdDeviation="3.629039"/>
  </filter>
  <filter id="am" x="-.080111" y="-.68876" width="1.1602" height="2.3775">
   <feGaussianBlur stdDeviation="3.629039"/>
  </filter>
  <filter id="ak" x="-.023395" y="-.4163" width="1.0468" height="1.8326">
   <feGaussianBlur stdDeviation="3.629039"/>
  </filter>
  <filter id="al" x="-.17646" y="-.81308" width="1.3529" height="2.6262">
   <feGaussianBlur stdDeviation="3.629039"/>
  </filter>
  <linearGradient id="bc" x1="-.000156" x2="1.0017" y1=".52514" y2=".52514">
   <stop stop-color="#9c938b" offset="0"/>
   <stop stop-color="#9c938b" offset=".15044"/>
   <stop stop-color="#eceae9" offset=".2557"/>
   <stop stop-color="#eceae9" offset=".71677"/>
   <stop stop-color="#766c64" offset="1"/>
  </linearGradient>
  <linearGradient id="bd" x1="-.015225" x2="1.0152" y1=".50012" y2=".50012">
   <stop stop-color="#f3f0ed" stop-opacity=".119" offset="0"/>
   <stop stop-color="#f3f0ed" stop-opacity=".498" offset=".5"/>
   <stop stop-color="#f3f0ed" stop-opacity="0" offset="1"/>
  </linearGradient>
  <linearGradient id="bg" x1=".50001" x2=".50001" y1=".08792" y2=".91208">
   <stop stop-color="#020202" offset="0"/>
   <stop stop-color="#020202" offset=".93438"/>
   <stop stop-color="#9e9c9a" offset=".96867"/>
   <stop stop-color="#b5a183" offset="1"/>
  </linearGradient>
  <linearGradient id="bf" x1="-.002863" x2="1.0028" y1=".5" y2=".5">
   <stop stop-color="#f8f8f8" stop-opacity=".195" offset="0"/>
   <stop stop-color="#f8f8f8" stop-opacity=".447" offset=".69912"/>
   <stop stop-color="#f8f8f8" stop-opacity=".239" offset="1"/>
  </linearGradient>
  <linearGradient id="bb" x1=".5" x2=".5" y1=".021302" y2=".97868">
   <stop stop-color="#686562" offset="0"/>
   <stop stop-color="#53504d" offset=".18772"/>
   <stop stop-color="#8f8c88" offset=".30992"/>
   <stop stop-color="#bebcba" offset="1"/>
  </linearGradient>
  <linearGradient id="be" x1="-5e-6" y1=".51034" y2=".51034">
   <stop stop-color="#7e7d7e" offset="0"/>
   <stop stop-color="#7e7d7e" offset=".79646"/>
   <stop stop-color="#505050" offset="1"/>
  </linearGradient>
  <radialGradient id="bp" cy=".41" r=".75768" fx=".26862" fy="0" gradientTransform="translate(0 .205) scale(1 .5)" spreadMethod="reflect">
   <stop stop-color="#f9f7f4" stop-opacity=".988" offset=".042057"/>
   <stop stop-color="#f5ffaa" stop-opacity=".996" offset=".17487"/>
   <stop stop-color="#ffa" stop-opacity=".996" offset=".3155"/>
   <stop stop-color="#ffda56" stop-opacity=".988" offset=".86237"/>
  </radialGradient>
 </defs>
 <g fill-rule="evenodd">
  <path d="m459.66 828.06s6.541 3.2717 18.455-3.8495c15.437-9.2275 35.348-46.966 35.836-57.744 2.054-45.379 8.2195-91.421 20.796-122.06 28.534-69.506 124.74-174.16 124.73-330.94-0.006592-144.53-142.54-311.85-309.53-313.09-271.41-2.0516-346.95 220.82-349.52 328.9-1.964 82.573 43.496 172.7 107.02 280.49 63.518 107.79 30.061 119.98 49.687 167.95 13.831 33.804 30.371 48.4 30.371 48.4l272.16 1.9443z" fill="#b3b3b3" stroke="#666" stroke-width=".731"/>
  <path d="m470.5 826.77c14.646-8.9286 33.149-63.114 33.088-73.498-0.25244-43.677 7.7569-87.992 19.625-117.48 26.928-66.9 117.72-167.63 117.71-318.53-0.006165-139.11-134.52-300.15-292.11-301.35-256.13-1.9747-327.42 212.54-329.85 316.56-1.8534 79.476 41.048 166.22 100.99 269.97 59.943 103.74 28.369 115.48 46.89 161.65 13.053 32.536 27.93 59.241 27.93 59.241s264.42 10.321 275.72 3.43z" fill="#fff" filter="url(#bh)" stroke-width=".953"/>
  <path d="m248.23 1081s13.572 16.286 21.715 23.072c8.143 6.7856 2.6771 7.1052 18.629 12.044 15.952 4.9382 26.18 8.314 45.18 7.7095 19.039-0.60547 22.084-4.3379 34.802-7.0708 12.718-2.7327 16.069-3.8606 16.069-3.8606l38.679-38.679-175.07 6.7856z" fill="url(#bg)" stroke="#000" stroke-width=".731"/>
  <path d="m479.58 826.06s-2.4862 1.786-8.7349 4.3972c-1.6891 0.70581-1.623 11.563-1.5386 19.859 0.069763 6.6853 8.14 10.678 8.14 21.314 0 10.637-9.0309 6.2704-10.965 13.039-1.9339 6.7687 0.15839 11.838 0.15839 11.838s9.3413 5.1105 10.308 12.846c0.96698 7.7356-8.7671 9.1068-11.668 14.909-2.9009 5.8019 2.485 15.747 2.485 15.747s8.767-0.797 8.5971 10.285c-0.13348 8.7015-11.709 9.5111-12.676 15.313-0.96698 5.8018-1.6502 13.204 8.4039 15.342 2.0099 0.42749 6.3876 2.7362 2.8481 12.33-2.8792 7.804-12.272 6.6928-12.272 13.462 0 6.7687-0.052795 9.7985 4.782 11.732 4.8348 1.934 9.5586 6.032 2.6782 13.227-6.5344 6.8332-38.476 41.044-48.412 43.706-18.182 4.8721-58.932 6.5872-88.908 6.5872s-75.199 1.4626-90.215-2.561c-3.8429-1.0295-37.02-31.898-40.378-38.221-4.4667-8.4109-0.91898-14.472-1.8811-20.699-0.901-5.831-3.5575-1.3482-8.3511-5.3448-8.9432-7.4563-0.74423-15.665 3.1236-17.598 3.8678-1.934 6.6748-13.45-0.093964-20.219-6.7687-6.7687-9.7914-11.687-4.0198-17.224 11.365-10.902 7.6533-16.28 1.8516-23.049-5.8018-6.7687-5.7371-9.8263-3.3812-15.419 2.3559-5.5922 10.149 0.66528 8.216-14.089-2.0011-15.274-3.1036-4.224-7.8529-14.762-3.3712-7.4802 2.6021-46.701 2.6021-46.701l-2.2738-3.3052-1.424-14.153-2.9009-2.9009s140.69-7.0116 160.99-5.0776c20.306 1.9338 134.69 5.3879 132.76 5.3879z" fill="url(#be)"/>
  <g fill="#646460">
   <path d="m305.74 829.66s-4.7636-0.68048-4.0831 6.1246c0.68054 6.8052 2.7221 14.291 2.7221 14.291s-6.1246-9.5272-2.7221 4.0831c3.4026 13.61 5.4442 13.61 0 16.332-5.4441 2.7222 12.93 14.971 12.93 14.971s-87.106 8.8468-98.675 8.8468 89.148 5.444 97.314 4.7635c8.1662-0.68048-2.0415 2.7222-5.4441 4.7637s23.138 4.083 39.47 2.0415 6.1247-6.1247-3.4026-6.8052c-9.5272-0.68048 11.569-0.68048 29.262-2.0414 17.694-1.361-14.971-8.1662-25.179-9.5272-10.208-1.3611-25.179-4.7637-6.8052-4.7637s25.179 2.7221 25.179-2.722c0-5.4442 2.7221-24.499 0-26.54-2.7221-2.0415 4.0831 0.68054-0.68051-6.8051-4.7636-7.4857-22.457-7.4857-22.457-7.4857s18.374-4.0831 33.345-6.1246c14.971-2.0416-71.454-2.722-70.774-3.4026z" filter="url(#ba)"/>
   <path d="m209.1 918.13s40.831 2.0416 69.413-0.68054c28.582-2.722 44.914-4.0831 66.01-2.722 21.096 1.361 19.735 0.68042 38.109-0.68054s1.361-6.8052-21.776-5.4442c-23.138 1.3611-46.956-1.361-66.01 2.0417-19.054 3.4025-36.748 2.722-49.678 2.722s-36.748 5.4441-36.067 4.7636z" filter="url(#az)"/>
   <path d="m216.59 937.18c2.7221 0 37.428-4.7636 61.927-5.4442 24.499-0.68048 38.789-6.8051 59.886-4.7636 21.096 2.0416 27.901 2.7221 43.553 4.0831s6.1246-0.68054-9.5273 2.722c-15.652 3.4026-38.109 8.1662-31.304 8.1662 6.8052 0 29.943-0.68048 19.054 2.0416-10.888 2.722-16.332 6.1246-39.47 6.1246s-53.08-2.722-31.304-4.7636 63.288-1.361 38.109-4.0831-51.719-2.7221-66.691-2.0416c-14.971 0.68048-44.914 0-44.234-2.0416z" filter="url(#ay)"/>
   <path d="m227.48 975.97s46.275 0 63.288-1.361 18.374-6.8052 37.428-6.1246c19.054 0.68054 39.47-2.0416 51.039 0.68054 11.569 2.722 21.096 2.0415 0.68054 3.4026-20.416 1.361-37.428 3.4025-34.026 5.4443 3.4026 2.0414 20.416 4.083 15.652 7.4857-4.7636 3.4024-3.4026 3.4024-28.582 4.083-25.179 0.68054-63.969 4.0832-44.914-0.68054 19.054-4.7636 64.649-8.1662 30.623-8.1662s-85.065-3.4024-91.189-4.7636z" filter="url(#ax)"/>
   <path d="m219.31 1014.8c4.0831 0 53.761 0 64.649-0.68066 10.888-0.68054 18.374-6.805 40.15-6.805s23.138 0.68054 40.831 3.4026c17.694 2.7219 31.304 1.361 36.748 1.361 5.4441 0 0-3.4026-21.096 3.4026-6.3704 2.0549-10.276 8.9156-7.0071 17.185 0.94229 2.3834 4.7903 3.0555 7.0491 5.5912 2.8807 3.2335 6.1043 6.5701 7.815 9.9573 7.7064 15.258-12.238 33.219-27.582 33.416-26.408 0.34045-42.114 0.63171-63.438 0.74792-1.4533 0.008057-23.059-15.64-16.568-30.773 1.5939-3.7164 4.8777-9.4965 7.5538-12.784 1.9802-2.432 3.5114-2.452 4.3854-4.7175 2.7546-7.1401-0.090424-12.982-1.355-13.18-21.777-3.4026-73.496-5.4442-72.135-6.1247z" filter="url(#aw)"/>
  </g>
  <g fill="#f3f0ed">
   <path d="m337.72 837.15c19.054 0 50.358-6.8051 66.01-1.361 15.652 5.4442 20.416-1.361 22.457 2.7221 2.0415 4.0831-0.68051 10.888-3.4026 12.249s4.7636 13.61 4.0831 22.457c-0.68051 8.8466-31.984 14.291-58.524 13.61-26.54-0.6806-31.984-1.3611-14.291-6.1246 17.694-4.7637 18.374-8.8467 17.694-17.013-0.68054-8.1662-8.1663-8.8467-7.4858-11.569 0.68054-2.722 8.8467 0.68054 4.0831-6.1246-4.7636-6.8052-29.262-8.8467-30.623-8.8467z" filter="url(#av)"/>
   <path d="m347.25 897.71s29.943-3.4026 48.317 0c18.374 3.4025 42.873 0 14.291 6.8051-28.582 6.8052-54.441 8.8467-73.496 8.1662-19.054-0.68048-12.249-0.68048 10.208-5.4442 22.457-4.7635 12.93-8.1662 5.4442-8.1662-7.4857 0-2.7221-0.68048-4.7636-1.3609z" filter="url(#au)"/>
  </g>
  <path d="m343.16 937.18s26.54-3.4026 52.4 0.68054 55.122 5.4441 4.7636 8.8467-82.343 6.1246-82.343 6.1246 22.457 0 38.109-6.8051c15.652-6.8052-11.569-6.8052-12.93-8.8467z" fill="#5b5a58" filter="url(#at)"/>
  <path d="m347.93 979.38s21.776-2.0416 47.636-1.361c25.86 0.68054 79.62-3.4028 35.387 4.083-44.234 7.4857-69.413 8.8467-84.384 10.888-14.971 2.0416-8.1662 0.68048 8.8467-5.4442 17.013-6.1248-7.4857-6.1248-7.4857-8.1662z" fill="#f3f0ed" filter="url(#as)"/>
  <g fill="#938a85">
   <path d="m197.76 893.51s32.146-0.97406 74.034 1.9482c41.887 2.9225 104.23 3.8965 48.706 9.7413-55.525 5.8447-117.87 10.716-117.87 10.716l-4.8706-22.405z" filter="url(#ar)"/>
   <path d="m195.82 939.29c4.8706-0.97424 37.991-4.8707 81.827 0 43.836 4.8706 69.163 8.7671 24.353 10.715-44.81 1.9483-101.31 8.7672-101.31 8.7672l-4.8706-19.482z" filter="url(#aq)"/>
   <path d="m197.76 977.28s27.276 8.7672 68.189 5.8448c40.913-2.9225 66.241-1.9484 61.37-0.9743-4.8706 0.9743-23.379 14.612-59.422 13.638-36.043-0.97412-70.137 0-70.137 0v-18.508z" filter="url(#ap)"/>
  </g>
  <g fill="#f3f0ed">
   <path d="m359.26 915.95c7.658 0 31.726-6.5638 53.606-4.376 21.88 2.1881-3.282 10.94-28.444 12.034s-24.068-6.564-25.162-7.658z" filter="url(#ao)"/>
   <path d="m354.89 960.8c6.564 0 16.41-2.188 38.29-3.282 21.88-1.0939 41.572-1.0939 41.572-1.0939s-17.504 6.564-41.572 7.658c-24.068 1.0941-36.102-3.282-38.29-3.282z" filter="url(#an)"/>
   <path d="m352.7 1001.3c4.376 0 2.188-4.376 32.82-5.47 30.632-1.0941 45.948 2.1881 45.948 2.1881s7.658 1.0938-27.35 5.4698-50.324-3.2819-51.418-2.1879z" filter="url(#am)"/>
   <path d="m371.3 1022.1c6.564 0 9.846-2.1879 27.35-2.1879s3.282 4.376 3.282 4.376-2.188 2.1879-17.504 3.282c-15.316 1.094-10.94-3.282-13.128-5.47z" filter="url(#al)"/>
  </g>
  <path d="m201.26 1036.2s91.775 2.5122 129.6 2.5122c37.824 0 134.51-7.2534 134.51-7.2534" fill="none" filter="url(#ak)" stroke="url(#bd)" stroke-opacity=".533" stroke-width="11"/>
  <g fill="#e3dcd4" fill-opacity=".257">
   <path d="m466.87 883.58s1.2238-4.839-7.5978 1.2682 8.143 11.536 8.143 11.536l-0.5452-12.804z" filter="url(#bi)"/>
   <path d="m463.7 924.57s-8.5045-3.0758-9.1831 3.71c-0.67859 6.7859 13.572 11.536 13.572 11.536l-4.3886-15.246z" filter="url(#bj)"/>
   <path d="m461.99 963.56s-9.5002-3.3929-11.536 3.3929c-2.0358 6.7859 15.018 11.308 15.018 11.308l-3.4819-14.701z" filter="url(#bk)"/>
   <path d="m460.13 1003.3s-4.9338-3.7543-6.291 3.0316c-1.3572 6.7857 11.308 11.536 11.308 11.536l-5.0168-14.567z" filter="url(#bl)"/>
  </g>
  <path d="m199.52 891.5s110.22-4.052 140.2-6.4833c29.985-2.4312 119.94-0.81042 119.94-0.81042s-76.178 13.777-115.89 13.777c-39.71 0-144.25-5.6728-144.25-6.4832z" fill="#5b5a58" filter="url(#aj)"/>
  <g fill="#64625c">
   <path d="m201.95 936.08s107.78-8.9145 140.2-8.9145c32.416 0 123.18-1.6208 117.51-0.81036-5.6729 0.81036-32.416 9.7248-84.282 11.346-51.866 1.6208-175.05 0.81049-173.43-1.6208z" filter="url(#ai)"/>
   <path d="m207.62 975.79s85.903-5.6728 121.56-6.4832c35.658-0.81042 127.23-4.0521 127.23-4.0521s-12.966 8.9146-59.97 10.535c-47.004 1.6208-191.26 3.2416-188.82 0z" filter="url(#bo)"/>
   <path d="m205.19 1017.9s97.249-5.6727 132.1-8.9144c34.848-3.2416 120.75-4.8625 120.75-4.8625s-8.9145 2.4313-57.539 8.9146c-48.624 6.4832-197.74 6.4832-195.31 4.8623z" filter="url(#bn)"/>
  </g>
  <path d="m196.26 843.75s87.52-3.2819 125.81-2.1879c38.29 1.0939 147.69 3.2819 147.69 3.2819" fill="none" filter="url(#bm)" stroke="#4b4b48" stroke-width="6"/>
  <path d="m311.94 468.57c-0.77069 0.007751 0.50171 89.549-0.3103 89.598 0.002563 1.7396 0.022095 6.2574 0.022888 7.2874 0.009766 12.906-26.966 19.035-31.457 17.476-10.299-3.5757-10.679 11.379-11.148 23.69-0.65546 17.219 8.7278 57.259 6.465 64.147-0.13342 0.40619-0.24023 0.73114-0.36554 1.0966 2.5901-1.7062 5.1193-4.3617 7.2417-8.4296 8.2622-15.836 10.338-13.07 2.7642-32.348-7.5736-19.278-14.458-34.43 4.8202-38.562 19.278-4.131 21.339-12.401 40.618-8.2697 19.278 4.1311 41.989 2.0851 46.808 25.494 4.8196 23.409-2.7401 38.543 4.145 50.936 2.516 4.5286 8.0422 5.1672 10.841 8.6422-0.8999-4.9536-1.7582-9.4513-2.1017-13.57-1.6945-20.317 7.9977-65.081 2.6957-72.371-5.3021-7.2904-13.236 1.6947-30.474-4.5918-9.3397-3.4059-9.6969-6.1456-9.3206-12.519-1.1821-0.21484 1.3178-103.3-4.001-103.18-13.128 0.29608-7.4722 102.6-17.507 100.92-7.1478-1.1989-14.704-95.494-19.736-95.443z" fill="#96948f"/>
  <path d="m327.39 609.73c-23.414 0.57318-16.105 39.916-18.139 64.057-1.7728 21.049 0.50348 122.68 1.622 152.84 12.453 0.56067 26.504 0.53186 39.612 0-0.14368-27.466-0.7016-131.12-1.3021-150.13-0.68854-21.799 4.135-66.066-20.651-66.747-0.38733-0.01062-0.77057-0.031677-1.1422-0.022583z" fill="url(#bc)"/>
  <path d="m322.64 627.23c-3.2085 0.10724-5.9633 1.4693-8.5666 4.5461-7.5736 8.9506-9.6543 13.08-16.539 15.146-6.8851 2.0656-6.8812 8.9468-20.651 20.651-0.35998 0.30597-0.7049 0.62726-1.0508 0.93665-0.022156 0.4765-0.058289 0.90002-0.11426 1.2793-0.02533 0.17163-0.058655 0.3291-0.09137 0.47974-0.037109 0.18072-0.065491 0.35425-0.1142 0.50256-0.42798 1.3027-0.79535 2.3351-1.1422 3.2668-0.095215 0.25574-0.20746 0.54218-0.297 0.77667-0.46747 1.2341-0.86334 2.2256-1.1879 3.1297-0.15326 0.42682-0.28534 0.83441-0.41119 1.2565-0.12585 0.42206-0.24133 0.86359-0.34265 1.325-0.10132 0.46143-0.19452 0.96295-0.27417 1.5078-0.07959 0.54486-0.14478 1.1323-0.20557 1.8048 0.68121-0.49872 0.41632 2.629-0.34265 8.2012-0.082092 5.2905-0.09137 12.849-0.091431 24.375 0 13.918-2.1354 76.487 3.084 105.11 0.053711 0.29456 0.18512 0.56812 0.38837 0.84522 3.0166 1.8392 6.6973 2.4448 11.148 1.5078 11.766-2.4775-13.074-182.46 33.056-152.85 20.892 13.408 21.273-5.413 33.718-6.1909 33.049-2.0656 27.557 123.23 31 156.96 0.053162 0.521 0.42181 2.0592 0.98236 3.975 5.9765-1.0958 10.167-2.4262 11.582-3.975 0.039368-0.66455 0.079834-1.2998 0.1142-2.0102 0.062317-1.2891 0.15564-2.6813 0.27417-4.1348-0.57324-23.357-0.99262-113.43-1.5991-126.17-0.27368-5.7472-1.0043-10.927-1.8048-15.694-0.39734-2.3664-0.79327-4.6436-1.1879-6.8077-0.03833-0.033386-0.075745-0.057922-0.1142-0.09137-21.344-18.59-9.639-15.826-24.786-22.022-15.147-6.1966-2.068 1.3663-19.281-7.5844-11.296-5.8738-19.026-10.256-25.152-10.052z" fill="url(#bb)"/>
  <path d="m351.7 447.99c-12.643-0.042969-39.317 2.6816-49.755 2.1017-11.93-0.66272-16.787 7.1935-6.5564 14.072 0.14056 0.094482 0.2912 0.18518 0.43408 0.27411 4.6819 1.253 9.3447 2.185 13.752 2.5814 1.1526-0.11121 1.8961-0.22846 1.8961-0.22846v0.36554c0.40576 0.022217 0.81036 0.056396 1.2108 0.068542 18.286 0.55408 23.664 5.1063 39.772 1.4849 0.090149-0.62299 0.17792-1.0884 0.297-1.3021 4.5659-8.1944 15.836-1.215 21.702-10.486 3.3804-5.3423-8.2537-7.5217-18.276-8.7266-1.1457-0.13776-2.6714-0.19946-4.4775-0.20563z" fill="#2c2e2d" stroke="#000" stroke-width=".731"/>
  <path d="m274.3 822.64c0-28.74-3.0796-95.73-3.0796-109.48 0-41.527-0.072021-31.975 4.2915-45.097 2.2629-6.8049-7.1295-46.346-6.474-63.357 0.46869-12.162 0.854-26.944 11.154-23.411 4.4906 1.5401 31.469-4.5116 31.459-17.261-0.010559-13.776-0.19415-97.476-0.19415-97.476s-9.4065 1.845-16.068-2.5792c-10.231-6.7953-5.3758-14.556 6.5544-13.901 11.93 0.65472 45.055-2.9802 54.221-1.8916 10.022 1.1903 21.678 3.3463 18.297 8.6238-5.8663 9.1583-17.152 2.2683-21.718 10.363-2.1641 3.8367 0.66534 78.112 0.74316 89.969 0.080444 12.248-3.4645 15.573 9.0045 20.065 17.239 6.2103 25.193-2.6518 30.495 4.5502 5.3023 7.202-4.3928 51.42-2.6982 71.492 0.75531 8.9465 4.0169 19.549 4.6797 33.298 0.66278 13.749 1.754 127.62 1.754 135.11 0 7.4822-122.42 3.9536-122.42 0.98498z" fill="url(#bf)" stroke="#808080" stroke-width=".727"/>
  <path d="m311.94 468.57c-0.77069 0.007751 0.50171 89.549-0.3103 89.598 0.002563 1.7396 0.022095 6.2574 0.022888 7.2874 0.009766 12.906-26.966 19.035-31.457 17.476-10.299-3.5757-10.679 11.379-11.148 23.69-0.65546 17.219 8.7278 57.259 6.465 64.147-0.13342 0.40619-0.24023 0.73114-0.36554 1.0966 2.5901-1.7062 5.1193-4.3617 7.2417-8.4296 8.2622-15.836 10.338-13.07 2.7642-32.348-7.5736-19.278-14.458-34.43 4.8202-38.562 19.278-4.131 21.339-12.401 40.618-8.2697 19.278 4.1311 41.989 2.0851 46.808 25.494 4.8196 23.409-2.7401 38.543 4.145 50.936 2.516 4.5286 8.0422 5.1672 10.841 8.6422-0.8999-4.9536-1.7582-9.4513-2.1017-13.57-1.6945-20.317 7.9977-65.081 2.6957-72.371-5.3021-7.2904-13.236 1.6947-30.474-4.5918-9.3397-3.4059-9.6969-6.1456-9.3206-12.519-1.1821-0.21484 1.3178-103.3-4.001-103.18-13.128 0.29608-7.4722 102.6-17.507 100.92-7.1478-1.1989-14.704-95.494-19.736-95.443z" fill="#96948f"/>
  <g fill="none">
   <g stroke="#333" stroke-linecap="round" stroke-width="7.31">
    <path d="m277.39 672.53s4.4706-39.49 5.5882-51.784c1.1177-12.294 0-19.373 0-29.059 0-9.6863 4.4706-4.8431 0.37256-20.863s-33.529-92.765-40.608-106.92c-7.0784-14.157-33.902-77.863-40.235-92.02-6.3333-14.157-18.255-39.49-18.255-39.49"/>
    <path d="m385.06 657.25c0-3.7255 0-40.98-1.4902-47.314-1.4902-6.3333-6.3333-10.804-6.3333-10.804s4.4706-14.529 4.098-17.137c-0.37256-2.6078-3.3529-9.3138-0.37256-21.98 2.9804-12.667 24.588-65.196 31.294-80.471 6.7059-15.274 26.078-76.373 33.53-92.392 7.4509-16.02 20.49-53.274 20.49-53.274"/>
   </g>
   <g stroke="#000">
    <g stroke-width=".731">
     <path d="m358.71 450.75s7.8537-28.47 13.253-49.577c5.3994-21.107 22.58-61.848 21.598-71.174-0.98169-9.3263-8.8354-14.726-10.799-3.9269-1.9634 10.799 11.29 18.162 11.781 4.4177 0.49084-13.744 0-33.378 0-33.378"/>
     <path d="m308.15 456.64c-0.98169-2.4544-7.8537-22.089-11.29-42.705-3.436-20.616-11.29-43.196-16.689-55.958-5.3995-12.762-7.3629-18.162-11.29-29.942-3.9269-11.781 1.9634-15.217 6.872-3.436s-1.4726 22.58-6.872 9.3264c-5.3995-13.253-10.308-29.942-10.308-29.942"/>
     <path d="m184.45 333.43s10.799-7.8537 28.961-8.8354c18.162-0.98169 20.125-0.98169 38.287-0.49084 18.162 0.49084 11.781 1.4726 30.433 0 18.653-1.4725 28.47-2.9451 53.013 1.4726s26.506 11.781 45.159 9.3263c18.653-2.4543 20.616-5.8903 40.25-6.872 19.634-0.98169 40.25 2.4543 43.686 4.4177s3.9269 2.9451 3.9269 2.9451"/>
    </g>
    <path d="m186.11 335.87s-3.2099-4.9683-1.5373-3.4824c1.6726 1.486 2.3745 2.9395 2.3745 2.9395m0.1381-0.0848s-3.08-5.0189-1.4074-3.533 2.275 3.0028 2.275 3.0028m0.1414-0.0792s-2.877-5.1386-1.265-3.5868 2.179 3.0788 2.179 3.0788m0.1438-0.0749s-2.7203-5.2232-1.156-3.6234 2.1624 3.0992 2.1624 3.0992m0.0615-0.0292s-2.5522-5.3073-1.0397-3.6584c1.5124 1.6489 2.0624 3.1666 2.0624 3.1666m0.1461-0.0703s-2.4661-5.3575-1.01-3.6586c1.456 1.6989 1.9546 3.2342 1.9546 3.2342m0.1484-0.0652s-2.372-5.3903-0.91598-3.6914c1.4561 1.6989 1.8614 3.2821 1.8614 3.2821m0.1506-0.06s-2.1793-5.471-0.78445-3.7215c1.3949 1.7495 1.8386 3.3016 1.8386 3.3016m0.1506-0.06s-2.0822-5.5248-0.75354-3.7245c1.3286 1.8003 1.7141 3.3679 1.7141 3.3679m0.1527-0.0543s-1.9736-5.5485-0.64499-3.7482c1.3286 1.8004 1.7141 3.3679 1.7141 3.3679m0.1527-0.0543s-1.8659-5.5905-0.60892-3.7395 1.5807 3.4324 1.5807 3.4324m0.1548-0.0483s-1.7545-5.6215-0.49753-3.7705 1.5808 3.4324 1.5808 3.4324m0.1547-0.0483s-1.6387-5.6571-0.45892-3.756 1.4383 3.4945 1.4383 3.4945m0.1566-0.0419s-1.5218-5.6889-0.34204-3.7878 1.4382 3.4945 1.4382 3.4945m0.1566-0.0419s-1.4001-5.7241-0.30316-3.774c1.097 1.9501 1.2866 3.5531 1.2866 3.5531m0.1582-0.0351s-1.2758-5.749-0.17883-3.799c1.0969 1.9501 1.2866 3.5531 1.2866 3.5531m0.1583-0.0351s-1.1494-5.7909-0.14108-3.7936c1.0084 1.9973 1.126 3.6072 1.126 3.6072m0.1597-0.028s-1.0166-5.8004-0.00824-3.8031 1.126 3.6072 1.126 3.6072m0.1597-0.028s-1.0166-5.8004-0.00827-3.8031c1.0084 1.9973 0.99262 3.6443 0.99262 3.6443m0.1608-0.0205s-0.74493-5.8415 0.16916-3.7993c0.91406 2.0421 0.95642 3.6558 0.95642 3.6558m0.1608-0.0206s-0.74493-5.8415 0.16913-3.7993c0.91409 2.0422 0.95645 3.6558 0.95645 3.6558m0.1608-0.0205s-0.60361-5.8586 0.21072-3.7747 0.77866 3.6978 0.77866 3.6978m0.1616-0.0127s-0.46179-5.8707 0.35254-3.7867c0.81433 2.0839 0.77866 3.6978 0.77866 3.6978m0.1616-0.0128s-0.46176-5.8706 0.35254-3.7867c0.81433 2.0839 0.69693 3.7131 0.69693 3.7131m0.1619-0.0082s-0.29694-5.8818 0.45868-3.7757 0.67471 3.7185 0.67471 3.7185m0.1619-0.0082s-0.29694-5.8819 0.45868-3.7757c0.75562 2.1061 0.67468 3.7184 0.67468 3.7184m0.1619-0.0082s-0.29694-5.8818 0.45868-3.7757c0.75562 2.1062 0.67468 3.7185 0.67468 3.7185m0.1619-0.0082s-0.29694-5.8818 0.45871-3.7757c0.75562 2.1061 0.67468 3.7184 0.67468 3.7184m0.1619-0.0082s-0.29697-5.8818 0.45865-3.7756c0.75562 2.1061 0.67468 3.7184 0.67468 3.7184m0.1619-0.0082s-0.29694-5.8818 0.45868-3.7757c0.75562 2.1062 0.67468 3.7185 0.67468 3.7185m0.1619-0.0082s-0.29694-5.8818 0.45868-3.7757 0.67468 3.7184 0.67468 3.7184m0.1619-0.0082s-0.29694-5.8818 0.45868-3.7756c0.75565 2.1061 0.67471 3.7184 0.67471 3.7184m0.1619-0.0082s-0.23554-5.8888 0.47583-3.7673c0.71133 2.1214 0.59671 3.7316 0.59671 3.7316m0.162-0.0048s-0.1738-5.8866 0.53754-3.7651c0.71136 2.1214 0.59674 3.7316 0.59674 3.7316m0.162-0.0048s-0.17377-5.8866 0.53757-3.7651c0.71136 2.1214 0.59671 3.7316 0.59671 3.7316m0.162-0.0048s-0.1738-5.8866 0.53757-3.7651c0.71136 2.1214 0.59671 3.7316 0.59671 3.7316m0.162-0.0048s-0.1738-5.8865 0.53757-3.7651c0.71136 2.1214 0.59671 3.7316 0.59671 3.7316m0.162-0.0048s-0.1738-5.8865 0.53757-3.7651c0.71133 2.1214 0.59671 3.7316 0.59671 3.7316m0.162-0.0048s-0.07309-5.9047 0.56512-3.7602c0.63824 2.1446 0.46851 3.7499 0.46851 3.7499m0.1621 7e-4s0.028015-5.889 0.66626-3.7444c0.63824 2.1445 0.46848 3.7499 0.46848 3.7499m0.1621 8e-4s0.028076-5.8891 0.66629-3.7445c0.63824 2.1445 0.46851 3.7499 0.46851 3.7499m0.1621 8e-4s0.028046-5.8891 0.66629-3.7445 0.46846 3.7499 0.46846 3.7499m0.1621 8e-4s0.028046-5.889 0.66629-3.7445c0.63824 2.1446 0.46848 3.7499 0.46848 3.7499m0.1621 7e-4s0.02803-5.889 0.66629-3.7445c0.63824 2.1446 0.46846 3.7499 0.46846 3.7499m0.1621 7e-4s0.028046-5.889 0.66626-3.7444c0.63824 2.1445 0.41119 3.7563 0.41119 3.7563m0.162 4e-3s0.14253-5.8876 0.73897-3.731c0.59648 2.1567 0.39557 3.7585 0.39557 3.7585m0.162 0.0039s0.14253-5.8876 0.73897-3.731 0.39549 3.7584 0.39549 3.7584m0.1621 0.0039s0.14247-5.8876 0.73897-3.731c0.59644 2.1566 0.39549 3.7584 0.39549 3.7584m0.1621 0.0039s0.14252-5.8876 0.73895-3.731c0.5965 2.1567 0.39555 3.7584 0.39555 3.7584m0.1621 0.0039s0.14252-5.8876 0.73895-3.731c0.59644 2.1567 0.39549 3.7584 0.39549 3.7584m0.1621 4e-3s0.14252-5.8876 0.73895-3.731c0.59644 2.1567 0.39551 3.7585 0.39551 3.7585m0.162 0.0039s0.14252-5.8876 0.73901-3.731c0.59644 2.1566 0.39551 3.7584 0.39551 3.7584m0.162 0.0039s0.14252-5.8876 0.73894-3.731c0.59651 2.1566 0.39552 3.7584 0.39552 3.7584m0.1621 0.0039s0.17419-5.8887 0.74744-3.7258c0.57318 2.163 0.35504 3.7624 0.35504 3.7624m0.162 0.0057s0.20581-5.8857 0.77905-3.7228c0.57318 2.1629 0.35504 3.7624 0.35504 3.7624m0.162 0.0057s0.20581-5.8857 0.77899-3.7228c0.57324 2.1629 0.3551 3.7624 0.3551 3.7624m0.162 0.0056s0.20587-5.8857 0.77905-3.7228c0.57324 2.1629 0.3551 3.7624 0.3551 3.7624m0.162 0.0057s0.20581-5.8857 0.77905-3.7228 0.30267 3.7668 0.30267 3.7668m0.1619 0.0085s0.31006-5.8811 0.84491-3.7084c0.53479 2.1727 0.28833 3.7682 0.28833 3.7682m0.1619 0.0085s0.31006-5.8811 0.84491-3.7084c0.53479 2.1727 0.28833 3.7681 0.28833 3.7681m0.1619 0.0085s0.31006-5.8811 0.84485-3.7084c0.53485 2.1727 0.26257 3.7684 0.26257 3.7684m0.1618 0.0099s0.36145-5.8779 0.8772-3.7007 0.25537 3.7703 0.25537 3.7703m0.1618 0.01s0.36145-5.8779 0.87726-3.7007c0.51575 2.1772 0.25537 3.7704 0.25537 3.7704m0.1618 0.0099s0.36145-5.8779 0.8772-3.7007c0.51581 2.1772 0.25537 3.7703 0.25537 3.7703m0.1618 0.0099s0.36145-5.8779 0.87726-3.7007c0.51575 2.1772 0.38623 3.7682 0.38623 3.7682m0.162 0.0028s0.10034-5.8879 0.71216-3.7358 0.42242 3.7552 0.42242 3.7552m0.162 0.0027s0.10034-5.8879 0.71216-3.7358 0.55804 3.7364 0.55804 3.7364m0.162-0.0048s-0.1712-5.8864 0.53925-3.7648c0.71039 2.1217 0.59503 3.7318 0.59503 3.7318m0.162-0.0047s-0.1712-5.8865 0.53918-3.7649c0.71039 2.1217 0.68457 3.7275 0.68457 3.7275m0.1618-0.0096s-0.35022-5.8788 0.42444-3.7796 0.70831 3.7121 0.70831 3.7121m0.1619-0.0096s-0.35022-5.8789 0.42444-3.7797 0.70837 3.7121 0.70837 3.7121m0.1618-0.0096s-0.35022-5.8788 0.42444-3.7796 0.70831 3.7122 0.70831 3.7122m0.1619-0.0097s-0.39478-5.8745 0.41168-3.7873c0.80652 2.0872 0.76471 3.701 0.76471 3.701m0.1617-0.0121s-0.43958-5.8729 0.36694-3.7857c0.80646 2.0871 0.76471 3.701 0.76471 3.701m0.1617-0.0121s-0.43958-5.8729 0.36694-3.7857c0.80646 2.0872 0.76471 3.701 0.76471 3.701m0.1616-0.0121s-0.43951-5.873 0.36691-3.7857c0.80655 2.0872 0.76474 3.701 0.76474 3.701m0.1617-0.0121s-0.43954-5.873 0.36697-3.7857c0.80646 2.0872 0.77881 3.6985 0.77881 3.6985m0.1616-0.0129s-0.46796-5.8706 0.34863-3.7874c0.81659 2.0833 0.78259 3.6972 0.78259 3.6972m0.1616-0.0129s-0.46793-5.8707 0.34866-3.7874c0.8165 2.0832 0.78259 3.6972 0.78259 3.6972m0.1616-0.0129s-0.46796-5.8706 0.34863-3.7874 0.78259 3.6972 0.78259 3.6972m0.1616-0.0128s-0.46796-5.8707 0.34863-3.7874c0.81653 2.0832 0.78259 3.6973 0.78259 3.6973m0.1616-0.0129s-0.4679-5.8707 0.34863-3.7874c0.81656 2.0833 0.78259 3.6972 0.78259 3.6972m0.1616-0.0129s-0.46796-5.8706 0.34863-3.7873c0.81653 2.0832 0.78259 3.6972 0.78259 3.6972m0.1616-0.0129s-0.4679-5.8706 0.34863-3.7874c0.81659 2.0832 0.78259 3.6973 0.78259 3.6973m0.1616-0.0129s-0.46796-5.8707 0.34863-3.7874c0.81653 2.0832 0.78259 3.6972 0.78259 3.6972m0.1616-0.0129s-0.46796-5.8707 0.34863-3.7874 0.78259 3.6973 0.78259 3.6973m0.1616-0.0129s-0.40405-5.8884 0.36633-3.7877c0.77039 2.1007 0.70081 3.7135 0.70081 3.7135m0.1619-0.0092s-0.33832-5.8795 0.43213-3.7788c0.77039 2.1008 0.70081 3.7135 0.70081 3.7135m0.1618-0.0093s-0.33826-5.8794 0.43213-3.7787 0.70081 3.7135 0.70081 3.7135m0.1619-0.0093s-0.33832-5.8794 0.43207-3.7787 0.70081 3.7135 0.70081 3.7135m0.1619-0.0092s-0.33832-5.8795 0.43207-3.7788c0.77039 2.1008 0.70081 3.7136 0.70081 3.7136m0.0883-0.0043s-0.19092-5.8862 0.52661-3.7668c0.71753 2.1195 0.6076 3.73 0.6076 3.73m0.162-0.0052s-0.19098-5.8862 0.52655-3.7667c0.71759 2.1194 0.6076 3.73 0.6076 3.73m0.162-0.0053s-0.12897-5.8922 0.54376-3.7582c0.67267 2.1341 0.52881 3.7419 0.52881 3.7419m0.162-0.0018s-0.066772-5.8888 0.60596-3.7548c0.67267 2.1341 0.52881 3.7419 0.52881 3.7419m0.1621-0.0018s0.002075-5.9016 0.62463-3.7524c0.62268 2.1492 0.44122 3.7533 0.44122 3.7533m0.1621 0.0019s0.070923-5.8888 0.69354-3.7396 0.44116 3.7533 0.44116 3.7533m0.1621 2e-3s0.070862-5.8888 0.69348-3.7397c0.62268 2.1492 0.36835 3.7564 0.36835 3.7564m0.162 6e-3s0.21643-5.8852 0.78574-3.7213c0.56934 2.1639 0.34833 3.763 0.34833 3.763m0.162 0.0059s0.21646-5.8852 0.7858-3.7213c0.56928 2.1639 0.34827 3.7631 0.34827 3.7631m0.162 0.0059s0.29047-5.885 0.80524-3.7075c0.51483 2.1776 0.25372 3.7706 0.25372 3.7706m0.1618 0.01s0.36408-5.8779 0.87891-3.7004 0.25372 3.7706 0.25372 3.7706m0.1618 0.01s0.36408-5.878 0.87891-3.7005c0.51483 2.1776 0.1807 3.7741 0.1807 3.7741m0.1615 0.014s0.50879-5.8672 0.96979-3.6777 0.16077 3.7757 0.16077 3.7757m0.1615 0.014s0.50879-5.8672 0.96976-3.6776c0.46103 2.1895 0.1608 3.7757 0.1608 3.7757m0.1615 0.014s0.57831-5.8674 0.98779-3.6676c0.40942 2.1997 0.07196 3.7784 0.07196 3.7784m0.1611 0.0178s0.64648-5.8536 1.056-3.6538c0.40942 2.1998 0.07196 3.7784 0.07196 3.7784m0.1611 0.0178s0.64654-5.8536 1.056-3.6539c0.40942 2.1998 0.07196 3.7784 0.07196 3.7784m0.1611 0.0179s0.71057-5.8466 1.0718-3.6384c0.36118 2.2082-0.010742 3.7791-0.010742 3.7791m0.1607 0.0214s0.77454-5.8381 1.1357-3.6299c0.36121 2.2082-0.010681 3.7792-0.010681 3.7792m0.1607 0.0213s0.77448-5.8382 1.1356-3.6299c0.36121 2.2082-0.010681 3.7791-0.010681 3.7791m0.1607 0.0213s0.83282-5.8303 1.1498-3.6153c0.31696 2.215-0.086304 3.7781-0.086304 3.7781m0.1603 0.0246s0.89105-5.8214 1.208-3.6065c0.31699 2.2151-0.086273 3.7781-0.086273 3.7781m0.1603 0.0246s0.89105-5.8215 1.208-3.6065c0.31702 2.2151-0.086304 3.7782-0.086304 3.7782m0.1603 0.0244s0.94421-5.8184 1.2213-3.5981c0.2771 2.2204-0.1542 3.776-0.1542 3.776m0.1598 0.0274s0.99558-5.8045 1.2727-3.5842c0.27707 2.2204-0.1542 3.776-0.1542 3.776m0.1598 0.0274s0.9956-5.8046 1.2727-3.5842c0.27704 2.2203-0.15424 3.776-0.15424 3.776m0.1597 0.0274s0.9957-5.8045 1.2728-3.5841c0.27704 2.2204-0.22876 3.7678-0.22876 3.7678m0.159 0.0314s1.1426-5.7771 1.3632-3.5505c0.22064 2.2266-0.25 3.7708-0.25 3.7708m0.1591 0.0314s1.1426-5.7772 1.3632-3.5506c0.22058 2.2266-0.25009 3.7707-0.25009 3.7707m0.1591 0.0315s1.1426-5.7772 1.3632-3.5506c0.22058 2.2266-0.25003 3.7707-0.25003 3.7707m0.1591 0.0314s1.2457-5.7607 1.3873-3.5276c0.14166 2.233-0.3833 3.7595-0.3833 3.7595m0.1577 0.037s1.3465-5.7331 1.4881-3.5001c0.14169 2.233-0.3833 3.7595-0.3833 3.7595m0.1578 0.037s1.3464-5.7331 1.4881-3.5001c0.14169 2.233-0.38333 3.7595-0.38333 3.7595m0.1578 0.0371s1.4485-5.7163 1.5119-3.4796c0.063477 2.2366-0.51465 3.7437-0.51465 3.7437m0.1564 0.0425s1.5462-5.6824 1.6096-3.4459c0.063446 2.2366-0.51462 3.7438-0.51462 3.7438m0.1564 0.0426s1.5461-5.6825 1.6096-3.4459c0.063446 2.2366-0.51465 3.7438-0.51465 3.7438m0.0635 0.0175s1.731-5.629 1.7213-3.3914c-0.009644 2.2375-0.63666 3.725-0.63666 3.725m0.1549 0.0476s1.731-5.629 1.7213-3.3915c-0.009613 2.2376-0.63672 3.7251-0.63672 3.7251m0.155 0.0477s1.8142-5.6198 1.7422-3.3834c-0.071899 2.2364-0.74011 3.706-0.74011 3.706m0.1536 0.0519s1.887-5.5787 1.8151-3.3424c-0.07196 2.2364-0.7402 3.706-0.7402 3.706m0.1536 0.0519s1.887-5.5787 1.8151-3.3423c-0.07196 2.2364-0.79663 3.6898-0.79663 3.6898m0.1525 0.055s1.9977-5.5401 1.8813-3.3055c-0.11646 2.2346-0.81381 3.6905-0.81381 3.6905m0.1526 0.055s1.9977-5.5401 1.8813-3.3055c-0.11646 2.2346-0.82986 3.6849-0.82986 3.6849m0.1523 0.0558s2.0297-5.5284 1.9003-3.2946c-0.12933 2.2338-0.83508 3.6857-0.83508 3.6857m0.1522 0.0558s2.0297-5.5284 1.9004-3.2946c-0.12933 2.2338-0.83508 3.6857-0.83508 3.6857m0.1522 0.0558s2.0297-5.5284 1.9003-3.2946c-0.12933 2.2339-0.83502 3.6857-0.83502 3.6857m0.1522 0.0559s2.0297-5.5285 1.9003-3.2946c-0.12933 2.2338-0.76148 3.7037-0.76148 3.7037m0.1536 0.0519s1.8874-5.5784 1.8153-3.3421c-0.072083 2.2364-0.74042 3.7058-0.74042 3.7058m0.1536 0.0519s1.7687-5.5924 1.7858-3.3551c0.017151 2.2373-0.59198 3.7321-0.59198 3.7321m0.1555 0.0459s1.6634-5.649 1.6805-3.4117c0.017151 2.2374-0.59204 3.7322-0.59204 3.7322m0.1555 0.0458s1.5026-5.6782 1.6434-3.4454c0.14093 2.2328-0.38452 3.759-0.38452 3.759m0.1578 0.0371s1.3481-5.732 1.4891-3.4992c0.14087 2.2328-0.38458 3.759-0.38458 3.759m0.2993 0.0629s1.0669-5.7917 1.3166-3.5682c0.24976 2.2235-0.098083 3.7887-0.098083 3.7887m0.1603 0.0237s0.86249-5.8255 1.1903-3.6122c0.32776 2.2133 0.038574 3.7862 0.038574 3.7862m0.1611 0.0179s0.65124-5.8528 1.0588-3.6528c0.40765 2.2 0.17639 3.7798 0.17639 3.7798m0.1617 0.0121s0.43787-5.8727 0.92529-3.689c0.48743 2.1838 0.31244 3.77 0.31244 3.77m0.162 0.0062s0.22668-5.8847 0.79224-3.7198c0.56549 2.1649 0.44458 3.7574 0.44458 3.7574m0.1621 6e-4s0.021301-5.889 0.66199-3.7452 0.57092 3.7429 0.57092 3.7429m0.162-0.0048s-0.17517-5.8865 0.53668-3.7652c0.71185 2.1212 0.5976 3.7314 0.5976 3.7314m0.2545-0.0141s-0.36066-5.878 0.41772-3.7803c0.77838 2.0978 0.7149 3.7108 0.7149 3.7108m0.1618-0.0099s-0.44696-5.8694 0.39288-3.7954c0.83984 2.0739 0.82391 3.6881 0.82391 3.6881m0.1614-0.0146s-0.61249-5.846 0.28363-3.7957c0.89618 2.0503 0.92432 3.6644 0.92432 3.6644m0.161-0.0191s-0.69354-5.8482 0.20258-3.798c0.89612 2.0503 0.99121 3.648 0.99121 3.648m0.1605-0.0228s-0.82935-5.8305 0.1142-3.8016c0.9436 2.0289 1.0093 3.6418 1.0093 3.6418m0.1605-0.0228s-0.82935-5.8306 0.1142-3.8017c0.9436 2.0289 1.0093 3.6419 1.0093 3.6419m0.1605-0.0228s-0.89215-5.8152 0.095581-3.8074c0.98767 2.0078 1.0886 3.6189 1.0886 3.6189m0.16-0.0263s-0.95666-5.811 0.031067-3.8033c0.98773 2.0078 1.0886 3.6189 1.0886 3.6189m0.16-0.0263s-0.9566-5.811 0.031067-3.8033c0.98773 2.0078 1.1507 3.5978 1.1507 3.5978m0.1594-0.0298s-1.0842-5.7886-0.052612-3.803c1.0317 1.9855 1.168 3.5941 1.168 3.5941m0.1593-0.0299s-1.0842-5.7886-0.052551-3.803c1.0316 1.9855 1.2269 3.5754 1.2269 3.5754m0.1587-0.0331s-1.2048-5.7647-0.13196-3.8011c1.0729 1.9636 1.2427 3.569 1.2427 3.569m0.1587-0.0332s-1.2048-5.7647-0.1319-3.8011c1.0728 1.9636 1.3109 3.543 1.3109 3.543m0.1578-0.037s-1.3457-5.7334-0.22504-3.7967c1.1206 1.9367 1.3298 3.5374 1.3298 3.5374m0.1578-0.037s-1.3456-5.7333-0.22504-3.7966c1.1207 1.9366 1.3298 3.5374 1.3298 3.5374m0.1578-0.037s-1.3457-5.7333-0.2251-3.7967c1.1207 1.9367 1.3298 3.5374 1.3298 3.5374m0.1949-0.046s-1.42-5.7156-0.27429-3.7935c1.1457 1.922 1.3757 3.5199 1.3757 3.5199m0.1573-0.0391s-1.42-5.7156-0.27429-3.7936c1.1457 1.9221 1.3757 3.52 1.3757 3.52m0.1573-0.0391s-1.42-5.7156-0.27429-3.7935 1.3757 3.5199 1.3757 3.5199m0.1573-0.0391s-1.3671-5.7325-0.25775-3.7893c1.1093 1.9432 1.3091 3.545 1.3091 3.545m0.158-0.0361s-1.3122-5.741-0.20288-3.7978c1.1092 1.9431 1.3091 3.545 1.3091 3.545m0.1581-0.0361s-1.3122-5.741-0.20294-3.7978 1.3091 3.545 1.3091 3.545m0.158-0.0361s-1.2248-5.7753-0.17712-3.7982 1.1971 3.5845 1.1971 3.5845m0.1591-0.0311s-1.1312-5.7795-0.083496-3.8024 1.1971 3.5845 1.1971 3.5845m0.1591-0.0311s-1.0544-5.7963-0.059814-3.792c0.99463 2.0043 1.1011 3.6151 1.1011 3.6151m0.1599-0.0269s-0.97668-5.8076 0.017944-3.8033c0.99463 2.0043 1.1011 3.6151 1.1011 3.6151m0.0786-0.0107s-0.81305-5.8328 0.12482-3.8013 0.99908 3.6446 0.99908 3.6446m0.1605-0.0223s-0.81299-5.8328 0.12488-3.8013 0.99908 3.6446 0.99908 3.6446m0.08-0.0079s-0.65082-5.8531 0.23035-3.7964c0.8811 2.0568 0.89746 3.671 0.89746 3.671m0.1611-0.0179s-0.65082-5.8531 0.23035-3.7964c0.8811 2.0568 0.89752 3.671 0.89752 3.671m0.1611-0.0179s-0.5744-5.8626 0.25269-3.7834c0.82703 2.079 0.80121 3.6932 0.80121 3.6932m0.1616-0.0137s-0.49762-5.8681 0.32947-3.7891c0.82709 2.0791 0.80127 3.6932 0.80127 3.6932m0.1615-0.0137s-0.42877-5.8877 0.34863-3.7896c0.77734 2.0982 0.71314 3.7112 0.71314 3.7112m0.1618-0.0098s-0.35779-5.8784 0.41956-3.7802c0.7774 2.0982 0.71314 3.7112 0.71314 3.7112m0.1618-0.0098s-0.35779-5.8784 0.41956-3.7802c0.7774 2.0982 0.7132 3.7112 0.7132 3.7112m0.1618-0.0099s-0.28589-5.8869 0.43976-3.7703c0.72559 2.1166 0.62183 3.7275 0.62183 3.7275m0.162-0.0059s-0.21338-5.8853 0.51221-3.7687c0.72565 2.1166 0.62183 3.7275 0.62183 3.7275m0.162-0.0059s-0.21344-5.8853 0.51221-3.7687c0.72559 2.1166 0.62183 3.7275 0.62183 3.7275m0.162-0.0059s-0.13776-5.8873 0.53326-3.7528c0.67096 2.1346 0.52576 3.7424 0.52576 3.7424m0.1621-0.0017s-0.062012-5.8888 0.60895-3.7543c0.67096 2.1346 0.52582 3.7424 0.52582 3.7424m0.1621-0.0017s-0.062073-5.8888 0.60889-3.7543c0.67096 2.1346 0.45654 3.7432 0.45654 3.7432m0.1621 0.0021s0.076477-5.8887 0.69708-3.739c0.62054 2.1498 0.43762 3.7537 0.43762 3.7537m0.1621 0.0021s0.076477-5.8887 0.69702-3.739c0.6206 2.1498 0.43768 3.7537 0.43768 3.7537m0.162 0.0021s0.076477-5.8887 0.69708-3.739c0.6206 2.1498 0.37341 3.7581 0.37341 3.7581m0.162 0.0056s0.20471-5.8857 0.77832-3.7229c0.57364 2.1628 0.35584 3.7623 0.35584 3.7623m0.162 0.0057s0.20465-5.8857 0.77832-3.7229 0.35584 3.7623 0.35584 3.7623m0.162 0.0056s0.26526-5.8946 0.79462-3.7206c0.52933 2.1741 0.27893 3.7689 0.27893 3.7689m0.1619 0.0089s0.32477-5.8802 0.85413-3.7062c0.52936 2.1741 0.27893 3.7689 0.27893 3.7689m0.1619 0.0089s0.32483-5.8802 0.85419-3.7062c0.52936 2.1741 0.27887 3.7689 0.27887 3.7689m0.1619 0.0089s0.3822-5.8805 0.8692-3.6966c0.487 2.184 0.20557 3.7736 0.20557 3.7736m0.1617 0.0121s0.43909-5.8729 0.92609-3.6889c0.48694 2.1839 0.20557 3.7736 0.20557 3.7736m0.1616 0.0121s0.43909-5.8729 0.92609-3.689c0.487 2.184 0.15015 3.771 0.15015 3.771m0.1614 0.0151s0.54962-5.8636 0.99542-3.6708c0.44574 2.1927 0.13446 3.7767 0.13446 3.7767m0.1614 0.0151s0.54962-5.8636 0.99542-3.6708c0.44574 2.1927 0.13446 3.7767 0.13446 3.7767m0.1614 0.0151s0.60498-5.8656 1.0098-3.665c0.40488 2.2006 0.064117 3.7786 0.064117 3.7786m0.1611 0.0181s0.65869-5.8524 1.0636-3.6517c0.40491 2.2006 0.064148 3.7786 0.064148 3.7786m0.1611 0.0182s0.65872-5.8524 1.0636-3.6517c0.40485 2.2007 0.008453 3.7754 0.008453 3.7754m0.1607 0.0212s0.76907-5.8388 1.1323-3.6309c0.36322 2.2079-0.007233 3.7791-0.007233 3.7791m0.1608 0.0212s0.7691-5.8388 1.1323-3.6309c0.36322 2.2079-0.007263 3.7791-0.007263 3.7791m0.1031 0.0131s0.88434-5.8224 1.2038-3.6078c0.31952 2.2147-0.081879 3.7783-0.081879 3.7783m0.1602 0.0244s0.88437-5.8225 1.2039-3.6078c0.31952 2.2147-0.081909 3.7783-0.081909 3.7783m0.1602 0.0244s0.94724-5.8151 1.2191-3.5941c0.27194 2.221-0.16306 3.7756-0.16306 3.7756m0.1597 0.0278s1.0092-5.8021 1.2811-3.5811c0.27185 2.221-0.16315 3.7756-0.16315 3.7756m0.1597 0.0278s1.0804-5.7895 1.2977-3.5625c0.21728 2.2269-0.25574 3.7704-0.25574 3.7704m0.159 0.0317s1.1513-5.7755 1.3686-3.5485c0.21722 2.2269-0.34286 3.757-0.34286 3.757m0.158 0.0364s1.3234-5.7385 1.474-3.506c0.15064 2.2324-0.36822 3.761-0.36822 3.761m0.158 0.0364s1.439-5.7216 1.5013-3.4851c0.062378 2.2365-0.51642 3.7434-0.51642 3.7434m0.1564 0.0426s1.7248-5.6662 1.6559-3.4302c-0.068787 2.236-0.73489 3.7062-0.73489 3.7062m0.1537 0.0518s2.0884-5.5482 1.8623-3.3224c-0.22598 2.2258-1.1897 3.5552-1.1897 3.5552m0.1446 0.0732s2.8478-5.1694 2.306-2.9985c-0.54175 2.1709-1.5047 3.4665-1.5047 3.4665m0.1392 0.0831s3.1373-4.9974 2.5006-2.8525c-0.63684 2.1448-1.6558 3.3967-1.6558 3.3967m0.1353 0.0892s3.3654-4.8354 2.6205-2.7258c-0.74484 2.1097-1.9696 3.2104-1.9696 3.2104m0.1248 0.1035s3.9224-4.4139 2.9158-2.4161c-1.0065 1.9979-2.5897 2.6967-2.5897 2.6967" stroke-width=".31"/>
   </g>
  </g>
  <path d="m459.66 828.06s6.541 3.272 18.455-3.85c15.437-9.227 35.348-46.965 35.836-57.744 2.054-45.378 8.219-91.42 20.795-122.06 28.534-69.506 124.74-174.16 124.74-330.94-0.006958-144.53-142.54-311.85-309.53-313.09-271.41-2.0516-346.95 220.82-349.52 328.9-1.964 82.573 43.496 172.7 107.01 280.49 63.519 107.79 30.061 119.98 49.687 167.95 13.832 33.804 30.371 48.4 30.371 48.4" fill="url(#bp)" opacity=".95" stroke="#666" stroke-width=".731"/>
 </g>
</svg>
