<?xml version="1.0" encoding="UTF-8" standalone="no"?>
<svg
   xmlns:dc="http://purl.org/dc/elements/1.1/"
   xmlns:cc="http://creativecommons.org/ns#"
   xmlns:rdf="http://www.w3.org/1999/02/22-rdf-syntax-ns#"
   xmlns:svg="http://www.w3.org/2000/svg"
   xmlns="http://www.w3.org/2000/svg"
   xmlns:sodipodi="http://sodipodi.sourceforge.net/DTD/sodipodi-0.dtd"
   xmlns:inkscape="http://www.inkscape.org/namespaces/inkscape"
   height="1024"
   width="768"
   version="1.1"
   id="svg4582"
   sodipodi:docname="pull-request_wh.svg"
   inkscape:version="0.92.4 5da689c313, 2019-01-14">
  <metadata
     id="metadata4588">
    <rdf:RDF>
      <cc:Work
         rdf:about="">
        <dc:format>image/svg+xml</dc:format>
        <dc:type
           rdf:resource="http://purl.org/dc/dcmitype/StillImage" />
        <dc:title></dc:title>
      </cc:Work>
    </rdf:RDF>
  </metadata>
  <defs
     id="defs4586" />
  <sodipodi:namedview
     pagecolor="#ffffff"
     bordercolor="#666666"
     borderopacity="1"
     objecttolerance="10"
     gridtolerance="10"
     guidetolerance="10"
     inkscape:pageopacity="0"
     inkscape:pageshadow="2"
     inkscape:window-width="1920"
     inkscape:window-height="1025"
     id="namedview4584"
     showgrid="false"
     inkscape:zoom="0.82128906"
     inkscape:cx="150.22117"
     inkscape:cy="512"
     inkscape:window-x="0"
     inkscape:window-y="25"
     inkscape:window-maximized="1"
     inkscape:current-layer="svg4582" />
  <path
     d="M128 64C57.344 64 0 121.34400000000005 0 192c0 47.219 25.906 88.062 64 110.281V721.75C25.906 743.938 0 784.75 0 832c0 70.625 57.344 128 128 128s128-57.375 128-128c0-47.25-25.844-88.062-64-110.25V302.28099999999995c38.156-22.219 64-63.062 64-110.281C256 121.34400000000005 198.656 64 128 64zM128 896c-35.312 0-64-28.625-64-64 0-35.312 28.688-64 64-64 35.406 0 64 28.688 64 64C192 867.375 163.406 896 128 896zM128 256c-35.312 0-64-28.594-64-64s28.688-64 64-64c35.406 0 64 28.594 64 64S163.406 256 128 256zM704 721.75V320c0-192.5-192-192-192-192h-64V0L256 192l192 192V256c0 0 26.688 0 64 0 56.438 0 64 64 64 64v401.75c-38.125 22.188-64 62.938-64 110.25 0 70.625 57.375 128 128 128s128-57.375 128-128C768 784.75 742.125 743.938 704 721.75zM640 896c-35.312 0-64-28.625-64-64 0-35.312 28.688-64 64-64 35.375 0 64 28.688 64 64C704 867.375 675.375 896 640 896z"
     id="path4580"
     style="fill:#ffffff;fill-opacity:1" />
</svg>
